<svg width="24" height="24" viewBox="0 0 24 24" fill="none" xmlns="http://www.w3.org/2000/svg">
    <path d="M22 11.4998C21.14 9.68977 18.16 4.49977 12 4.49977C10.27 4.49977 8.79002 4.91977 7.54002 5.54977L4.75002 2.75977L3.34002 4.16977L5.82002 6.64977C3.71002 8.29977 2.51002 10.4598 2.02002 11.4998C2.87002 13.3098 5.86002 18.4998 12.02 18.4998C13.8 18.4998 15.3 18.0598 16.58 17.3998L19.35 20.1698L20.76 18.7598L18.29 16.2898C20.35 14.6498 21.53 12.5298 22.01 11.4998H22ZM12 6.49977C16.22 6.49977 18.63 9.52977 19.75 11.4998C19.16 12.5298 18.22 13.8498 16.86 14.8698L14.73 12.7398C14.9 12.3598 15.01 11.9398 15.01 11.4998C15.01 9.83977 13.67 8.49977 12.01 8.49977C11.57 8.49977 11.15 8.59977 10.77 8.77977L9.05002 7.05977C9.92002 6.71977 10.9 6.49977 12.01 6.49977H12ZM12 16.4998C7.78002 16.4998 5.37002 13.4698 4.25002 11.4998C4.85002 10.4498 5.81002 9.09977 7.22002 8.06977L9.32002 10.1698C9.12002 10.5698 9.00002 11.0198 9.00002 11.4998C9.00002 13.1598 10.34 14.4998 12 14.4998C12.48 14.4998 12.93 14.3798 13.33 14.1798L15.05 15.8998C14.16 16.2698 13.15 16.4998 11.99 16.4998H12Z"
          fill="#999999"/>
</svg>
