<svg width="20" height="15" viewBox="0 0 20 15" fill="none" xmlns="http://www.w3.org/2000/svg">
    <path d="M10 0.5C3.84 0.5 0.85 5.69 0 7.5C0.85 9.31 3.84 14.5 10 14.5C16.16 14.5 19.14 9.31 20 7.5C19.14 5.69 16.16 0.5 10 0.5ZM10 12.5C5.78 12.5 3.37 9.47 2.25 7.5C3.37 5.53 5.78 2.5 10 2.5C14.22 2.5 16.63 5.53 17.75 7.5C16.63 9.47 14.22 12.5 10 12.5Z"
          fill="#999999"/>
    <path d="M10 10.5C11.6569 10.5 13 9.15685 13 7.5C13 5.84315 11.6569 4.5 10 4.5C8.34315 4.5 7 5.84315 7 7.5C7 9.15685 8.34315 10.5 10 10.5Z"
          fill="#999999"/>
</svg>
