<svg width="24" height="24" viewBox="0 0 24 24" fill="none" xmlns="http://www.w3.org/2000/svg">
    <path d="M12 4.5C5.84 4.5 2.85 9.69 2 11.5C2.85 13.31 5.84 18.5 12 18.5C18.16 18.5 21.14 13.31 22 11.5C21.14 9.69 18.16 4.5 12 4.5ZM12 16.5C7.78 16.5 5.37 13.47 4.25 11.5C5.37 9.53 7.78 6.5 12 6.5C16.22 6.5 18.63 9.53 19.75 11.5C18.63 13.47 16.22 16.5 12 16.5Z"
          fill="#999999"/>
    <path d="M12 14.5C13.6569 14.5 15 13.1569 15 11.5C15 9.84315 13.6569 8.5 12 8.5C10.3431 8.5 9 9.84315 9 11.5C9 13.1569 10.3431 14.5 12 14.5Z"
          fill="#999999"/>
</svg>
