<svg width="21" height="19" viewBox="0 0 21 19" fill="none" xmlns="http://www.w3.org/2000/svg">
    <path d="M20 9.49977C19.14 7.68977 16.16 2.49977 10 2.49977C8.27002 2.49977 6.79002 2.91977 5.54002 3.54977L2.75002 0.759766L1.34002 2.16977L3.82002 4.64977C1.71002 6.29977 0.51002 8.45977 0.0200195 9.49977C0.87002 11.3098 3.86002 16.4998 10.02 16.4998C11.8 16.4998 13.3 16.0598 14.58 15.3998L17.35 18.1698L18.76 16.7598L16.29 14.2898C18.35 12.6498 19.53 10.5298 20.01 9.49977H20ZM10 4.49977C14.22 4.49977 16.63 7.52977 17.75 9.49977C17.16 10.5298 16.22 11.8498 14.86 12.8698L12.73 10.7398C12.9 10.3598 13.01 9.93976 13.01 9.49977C13.01 7.83977 11.67 6.49977 10.01 6.49977C9.57002 6.49977 9.15002 6.59977 8.77002 6.77977L7.05002 5.05977C7.92002 4.71977 8.90002 4.49977 10.01 4.49977H10ZM10 14.4998C5.78002 14.4998 3.37002 11.4698 2.25002 9.49977C2.85002 8.44977 3.81002 7.09976 5.22002 6.06977L7.32002 8.16977C7.12002 8.56977 7.00002 9.01977 7.00002 9.49977C7.00002 11.1598 8.34002 12.4998 10 12.4998C10.48 12.4998 10.93 12.3798 11.33 12.1798L13.05 13.8998C12.16 14.2698 11.15 14.4998 9.99002 14.4998H10Z"
          fill="#999999"/>
</svg>
