<svg width="20" height="20" viewBox="0 0 20 20" fill="none" xmlns="http://www.w3.org/2000/svg">
<g id="Vector">
<path d="M10 0C4.48 0 0 4.48 0 10C0 15.52 4.48 20 10 20C15.52 20 20 15.52 20 10C20 4.48 15.52 0 10 0ZM10 18C5.59 18 2 14.41 2 10C2 5.59 5.59 2 10 2C14.41 2 18 5.59 18 10C18 14.41 14.41 18 10 18Z" fill="#FFFEFE"/>
<path d="M10 7.12C10.6186 7.12 11.12 6.61856 11.12 6C11.12 5.38144 10.6186 4.88 10 4.88C9.38144 4.88 8.88 5.38144 8.88 6C8.88 6.61856 9.38144 7.12 10 7.12Z" fill="#FFFEFE"/>
<path d="M11 9H9V15H11V9Z" fill="#FFFEFE"/>
</g>
</svg>
