<svg width="330" height="423" viewBox="0 0 330 423" fill="none" xmlns="http://www.w3.org/2000/svg">
<g opacity="0.1">
<path d="M236.435 -105.784C236.435 -105.784 251.537 -62.8646 281.983 -55.9433C311.166 -49.334 325.577 -5.56229 325.577 -5.56229" stroke="#999999" stroke-width="2.49734" stroke-miterlimit="10"/>
<path d="M222.62 -103.623C222.62 -103.623 240.553 -50.875 277.332 -42.3174C312.484 -34.1327 329.509 19.5802 329.509 19.5802" stroke="#999999" stroke-width="2.49734" stroke-miterlimit="10"/>
<path d="M208.845 -101.468C208.845 -101.468 229.64 -38.9363 272.675 -28.7304C313.792 -19.0085 333.436 44.6838 333.436 44.6838" stroke="#999999" stroke-width="2.49734" stroke-miterlimit="10"/>
<path d="M195.067 -99.3142C195.067 -99.3142 218.694 -26.9532 268.061 -15.111C315.148 -3.81377 337.373 69.864 337.373 69.864" stroke="#999999" stroke-width="2.49734" stroke-miterlimit="10"/>
<path d="M181.252 -97.1534C181.252 -97.1534 207.71 -14.9637 263.371 -1.4792C316.461 11.3491 341.305 95.0064 341.305 95.0064" stroke="#999999" stroke-width="2.49734" stroke-miterlimit="10"/>
<path d="M167.476 -94.9991C167.476 -94.9991 196.758 -3.01893 258.752 12.1019C317.773 26.5116 345.237 120.148 345.237 120.148" stroke="#999999" stroke-width="2.49734" stroke-miterlimit="10"/>
<path d="M153.7 -92.8443C153.7 -92.8443 185.852 8.95859 254.102 25.7277C319.125 41.6686 349.164 145.253 349.164 145.253" stroke="#999999" stroke-width="2.49734" stroke-miterlimit="10"/>
<path d="M139.885 -90.6845C139.885 -90.6845 174.867 20.9472 249.444 39.3144C320.437 56.8307 353.095 170.394 353.095 170.394" stroke="#999999" stroke-width="2.49734" stroke-miterlimit="10"/>
<path d="M126.108 -88.5295C126.108 -88.5295 163.915 32.8927 244.792 52.9405C321.788 71.9878 357.027 195.537 357.027 195.537" stroke="#999999" stroke-width="2.49734" stroke-miterlimit="10"/>
<path d="M112.332 -86.3748C112.332 -86.3748 152.97 44.8761 240.135 66.5279C323.101 87.1507 360.959 220.679 360.959 220.679" stroke="#999999" stroke-width="2.49734" stroke-miterlimit="10"/>
<path d="M98.5167 -84.2151C98.5167 -84.2151 142.024 56.8586 235.484 80.1528C324.414 102.313 364.885 245.782 364.885 245.782" stroke="#999999" stroke-width="2.49734" stroke-miterlimit="10"/>
<path d="M84.7401 -82.0599C84.7401 -82.0599 131.072 68.8042 230.826 93.7407C325.765 117.47 368.817 270.925 368.817 270.925" stroke="#999999" stroke-width="2.49734" stroke-miterlimit="10"/>
<path d="M70.9637 -79.9055C70.9637 -79.9055 120.127 80.7874 226.213 107.36C327.078 132.633 372.749 296.067 372.749 296.067" stroke="#999999" stroke-width="2.49734" stroke-miterlimit="10"/>
<path d="M57.1489 -77.746C57.1489 -77.746 109.181 92.7697 221.523 120.991C328.391 147.794 376.681 321.208 376.681 321.208" stroke="#999999" stroke-width="2.49734" stroke-miterlimit="10"/>
<path d="M43.3723 -75.5904C43.3723 -75.5904 98.2293 104.716 216.904 134.573C329.742 162.952 380.613 346.351 380.613 346.351" stroke="#999999" stroke-width="2.49734" stroke-miterlimit="10"/>
<path d="M29.5963 -73.4359C29.5963 -73.4359 87.2842 116.699 212.253 148.199C331.055 178.115 384.54 371.455 384.54 371.455" stroke="#999999" stroke-width="2.49734" stroke-miterlimit="10"/>
<path d="M15.7813 -71.2755C15.7813 -71.2755 76.3 128.688 207.596 161.786C332.374 193.315 388.471 396.597 388.471 396.597" stroke="#999999" stroke-width="2.49734" stroke-miterlimit="10"/>
<path d="M2.00455 -69.1204C2.00455 -69.1204 65.3864 140.628 202.944 175.412C333.724 208.473 392.403 421.74 392.403 421.74" stroke="#999999" stroke-width="2.49734" stroke-miterlimit="10"/>
</g>
</svg>
