<svg width="96" height="96" viewBox="0 0 96 96" fill="none" xmlns="http://www.w3.org/2000/svg">
<path d="M96 0H0V96H96V0Z" fill="white"/>
<path d="M48.6 75.54H9.72003V72.54H46.29L58.08 28.38H9.72003V25.38H61.98L48.6 75.54Z" fill="black"/>
<path d="M57.51 36.33H72.6L88.32 55.17L82.02 74.04H47.46L57.51 36.33Z" fill="#08A45E"/>
<path d="M83.1 75.54H45.48L56.34 34.83H73.29L90 54.87L83.1 75.54ZM49.41 72.54H80.94L86.61 55.5L71.88 37.83H58.65L49.38 72.54H49.41Z" fill="black"/>
<path d="M63.51 81.12C67.4202 81.12 70.59 77.9502 70.59 74.04C70.59 70.1298 67.4202 66.96 63.51 66.96C59.5998 66.96 56.43 70.1298 56.43 74.04C56.43 77.9502 59.5998 81.12 63.51 81.12Z" fill="white"/>
<path d="M63.51 82.62C58.77 82.62 54.93 78.78 54.93 74.04C54.93 69.3 58.77 65.46 63.51 65.46C68.25 65.46 72.09 69.3 72.09 74.04C72.09 78.78 68.25 82.62 63.51 82.62ZM63.51 68.49C60.45 68.49 57.93 70.98 57.93 74.07C57.93 77.16 60.42 79.65 63.51 79.65C66.6 79.65 69.09 77.16 69.09 74.07C69.09 70.98 66.6 68.49 63.51 68.49Z" fill="black"/>
<path d="M25.77 81.12C29.6802 81.12 32.85 77.9502 32.85 74.04C32.85 70.1298 29.6802 66.96 25.77 66.96C21.8598 66.96 18.69 70.1298 18.69 74.04C18.69 77.9502 21.8598 81.12 25.77 81.12Z" fill="#08A45E"/>
<path d="M25.77 82.62C21.06 82.62 17.19 78.78 17.19 74.04C17.19 69.3 21.03 65.46 25.77 65.46C30.51 65.46 34.35 69.3 34.35 74.04C34.35 78.78 30.51 82.62 25.77 82.62ZM25.77 68.49C22.71 68.49 20.19 70.98 20.19 74.07C20.19 77.16 22.68 79.65 25.77 79.65C28.86 79.65 31.35 77.16 31.35 74.07C31.35 70.98 28.86 68.49 25.77 68.49Z" fill="black"/>
<path d="M28.59 34.83H6.51001V37.83H28.59V34.83Z" fill="black"/>
<path d="M25.47 44.1901H6.21002V47.1901H25.47V44.1901Z" fill="black"/>
<path d="M19.17 53.67H6.21002V56.67H19.17V53.67Z" fill="black"/>
<path d="M85.5 39.84H66.24V42.84H85.5V39.84Z" fill="black"/>
<path d="M54.15 17.01H34.89V20.01H54.15V17.01Z" fill="black"/>
</svg>
