<svg width="56" height="56" viewBox="0 0 56 56" fill="none" xmlns="http://www.w3.org/2000/svg">
<path d="M29.085 5.46008C29.7675 10.2726 32.76 12.7051 37.9925 12.7051C39.0425 12.7051 40.04 12.6176 40.915 12.5476C41.16 12.5301 41.405 12.5126 41.6325 12.4951L44.9925 17.5001C40.705 24.1151 43.8725 30.6426 47.0225 34.1251L44.905 39.7601C42.7875 39.9351 38.4475 40.4076 35.98 43.4176C34.6325 45.0451 34.0725 47.1276 34.3 49.6126L26.3025 50.5576C25.6025 45.7101 22.47 43.2426 16.9575 43.2426C15.8375 43.2426 14.7 43.3301 13.7025 43.4526L10.29 38.3951C12.355 34.2126 13.7725 27.0376 8.38251 21.8051L10.4475 16.3101C14.5425 15.9951 17.5175 14.7876 19.285 12.7226C20.7025 11.0776 21.2975 8.94258 21.07 6.40508L29.085 5.46008ZM30.625 3.51758L19.145 4.88258L19.3025 6.28258C20.0025 12.2326 15.4 14.4201 9.20501 14.6476L6.3175 22.3476C14.175 28.7176 8.2425 38.5176 8.2425 38.5176L12.8275 45.3426C14.1925 45.1676 15.61 45.0101 16.94 45.0101C20.7375 45.0101 24.01 46.1826 24.5875 51.1176L24.745 52.5176L36.225 51.1701L36.0675 49.7701C35.0525 41.1951 45.115 41.6851 46.165 41.4051C46.165 41.4051 46.55 40.3901 49.0525 33.7051C49.0525 33.7051 40.635 25.9701 47.1275 17.5351L42.5425 10.7101C41.405 10.7101 39.7425 10.9726 38.01 10.9726C34.8075 10.9726 31.395 10.0626 30.8 4.91758L30.6425 3.51758H30.625Z" fill="black"/>
<path d="M40.46 18.095L38.7625 17.675C38.7975 17.5 38.85 17.3425 38.885 17.185C38.71 17.185 38.535 17.185 38.36 17.185V15.435C38.8675 15.435 39.41 15.4 39.9875 15.33C40.285 15.295 40.5825 15.4175 40.775 15.6625C40.9675 15.9075 41.02 16.2225 40.915 16.5025C40.915 16.52 40.705 17.115 40.46 18.095Z" fill="black"/>
<path d="M33.985 16.6076C32.5325 16.1526 31.22 15.4526 30.065 14.5076L31.1675 13.1426C32.1475 13.9476 33.285 14.5426 34.51 14.9276L33.985 16.6076Z" fill="black"/>
<path d="M24.255 11.4625L22.575 10.955C22.8375 10.0625 22.9075 9.43252 22.9075 9.43252C22.9425 9.01252 23.2575 8.68002 23.6775 8.64502L27.0725 8.24252C27.475 8.19002 27.8775 8.43502 28 8.83752C28 8.83752 28.1925 9.43252 28.665 10.2375L27.16 11.1125C26.915 10.71 26.74 10.3425 26.6 10.045L24.5175 10.29C24.465 10.605 24.36 11.0075 24.22 11.4625H24.255Z" fill="black"/>
<path d="M18.9175 18.375L18.025 16.87C19.1275 16.205 20.09 15.365 20.86 14.35L22.2425 15.4175C21.3325 16.6075 20.2125 17.605 18.9175 18.375Z" fill="black"/>
<path d="M12.95 21.3324C12.495 20.4399 12.145 19.9149 12.145 19.8974C11.9875 19.6349 11.9525 19.3199 12.075 19.0399C12.1975 18.7599 12.46 18.5674 12.7575 18.5324C13.335 18.4624 13.8775 18.3749 14.4025 18.2524L14.7875 19.9674C14.6125 20.0024 14.4375 20.0374 14.2625 20.0724C14.3325 20.2124 14.42 20.3524 14.49 20.5274L12.9325 21.3324H12.95Z" fill="black"/>
<path d="M17.2375 33.4249L15.505 33.2324C15.575 32.6374 15.5925 32.0599 15.5925 31.4824C15.5925 31.0449 15.5925 30.6074 15.54 30.1874L17.29 30.0649C17.325 30.5374 17.3425 31.0099 17.3425 31.4824C17.3425 32.1124 17.3075 32.7599 17.2375 33.4249ZM15.085 27.1424C14.8575 26.1624 14.56 25.1649 14.1925 24.1674L15.8375 23.5549C16.2225 24.6224 16.555 25.6899 16.7825 26.7399L15.085 27.1249V27.1424Z" fill="black"/>
<path d="M16.695 39.1825C15.715 39.0425 15.0675 39.0075 15.05 39.0075C14.7525 39.0075 14.49 38.8325 14.35 38.5875C14.1925 38.3425 14.175 38.0275 14.2975 37.765C14.525 37.2575 14.7175 36.7325 14.8925 36.225L16.555 36.75C16.485 36.96 16.415 37.1525 16.345 37.3625C16.5375 37.38 16.7475 37.415 16.9575 37.45L16.695 39.1825Z" fill="black"/>
<path d="M23.8525 41.65C22.89 41.02 21.735 40.495 20.44 40.0575L20.9825 38.395C22.4175 38.8675 23.7125 39.4625 24.7975 40.18L23.8525 41.65Z" fill="black"/>
<path d="M28 46.0949C27.6325 46.0949 27.3175 45.8674 27.1775 45.5349C26.985 45.0449 26.7575 44.5724 26.46 44.1349L27.9125 43.1724C28.14 43.5224 28.35 43.8899 28.5425 44.2749L30.6425 44.0299C30.73 43.6099 30.8525 43.2074 30.9925 42.8049L32.6375 43.3999C32.4625 43.8899 32.3225 44.3974 32.27 44.9224C32.2175 45.3249 31.9025 45.6399 31.5 45.6749L28.105 46.0774C28.105 46.0774 28.035 46.0774 28 46.0774V46.0949Z" fill="black"/>
<path d="M34.615 40.3725L33.355 39.165C34.2475 38.22 35.3675 37.345 36.645 36.5575L37.5725 38.045C36.4175 38.7625 35.42 39.55 34.615 40.39V40.3725Z" fill="black"/>
<path d="M40.985 36.3125L40.32 34.685C40.53 34.5975 40.7225 34.5275 40.8975 34.4575C40.775 34.2825 40.67 34.09 40.5475 33.915L42.0525 33.005C42.3325 33.46 42.6475 33.915 42.98 34.37C43.155 34.5975 43.2075 34.895 43.12 35.175C43.0325 35.455 42.805 35.665 42.525 35.7525C42.5075 35.7525 41.895 35.945 40.9675 36.3125H40.985Z" fill="black"/>
<path d="M39.1125 30.87C38.745 29.855 38.465 28.7525 38.2725 27.615L40.005 27.3175C40.18 28.35 40.4425 29.3475 40.7575 30.275L39.1125 30.8525V30.87ZM37.9925 24.29V23.975C37.9925 23.0125 38.0625 21.98 38.1675 20.965L39.9 21.175C39.795 22.1375 39.725 23.0825 39.725 23.9925V24.255L37.975 24.29H37.9925Z" fill="black"/>
<path d="M42.0525 46.48C47.3972 46.48 51.73 42.1472 51.73 36.8025C51.73 31.4578 47.3972 27.125 42.0525 27.125C36.7078 27.125 32.375 31.4578 32.375 36.8025C32.375 42.1472 36.7078 46.48 42.0525 46.48Z" fill="#08A45E"/>
<path d="M42.0525 28C46.9 28 50.855 31.955 50.855 36.8025C50.855 41.65 46.9 45.605 42.0525 45.605C37.205 45.605 33.25 41.65 33.25 36.8025C33.25 31.955 37.205 28 42.0525 28ZM42.0525 26.25C36.225 26.25 31.5 30.975 31.5 36.8025C31.5 42.63 36.225 47.355 42.0525 47.355C47.88 47.355 52.605 42.63 52.605 36.8025C52.605 30.975 47.88 26.25 42.0525 26.25Z" fill="black"/>
<path d="M40.635 41.37L36.19 36.925L37.4325 35.6825L40.635 38.885L46.6725 32.8475L47.8975 34.09L40.635 41.37Z" fill="black"/>
<path d="M10.5175 47.3025H5.26752V49.0525H10.5175V47.3025Z" fill="black"/>
<path d="M8.76752 45.5525H7.01752V50.8025H8.76752V45.5525Z" fill="black"/>
<path d="M50.7675 8.76758H45.5175V10.5176H50.7675V8.76758Z" fill="black"/>
<path d="M49.0175 7.01758H47.2675V12.2676H49.0175V7.01758Z" fill="black"/>
</svg>
