<svg width="56" height="56" viewBox="0 0 56 56" fill="none" xmlns="http://www.w3.org/2000/svg">
<path d="M15.085 22.4351L16.52 20.0726L17.08 19.1451L16.52 18.2176L15.085 15.8551L17.57 14.4901L18.55 13.9651V12.8801V10.1501H21.42H22.54L23.1 9.22261L24.535 6.86011L27.02 8.22511L28 8.76761L28.98 8.22511L31.465 6.86011L32.9 9.22261L33.46 10.1501H34.58H37.45V12.8801V13.9651L38.43 14.4901L40.915 15.8551L39.48 18.2176L38.92 19.1451L39.48 20.0726L40.915 22.4351L39.9525 22.9776L38.43 23.8176L37.45 24.3426V24.6051V25.4101V26.8801L28 29.3301H27.965H27.93L18.55 26.8801V25.4101V24.6051V24.3426L17.57 23.8176L16.03 22.9601L15.085 22.4351Z" fill="#08A45E"/>
<path d="M48.5976 23.9924L42.7875 23.4849L43.0325 23.3449L40.705 19.5124L43.0325 15.6799L39.0075 13.4749V9.06492H34.3701L32.0425 5.23242L28.0175 7.43742L23.9926 5.23242L21.6651 9.06492H17.0275V13.4749L13.0025 15.6799L15.33 19.5124L13.0025 23.3449L13.2476 23.4849L7.45504 23.9924L3.55255 31.1324L7.49005 32.1474V45.4649L27.9826 50.7499L48.6151 45.4649V32.1299L52.5526 31.1149L48.6501 23.9749L48.5976 23.9924ZM43.4175 25.3399L38.9901 26.4949V25.5674L39.9526 25.0424L43.4175 25.3399ZM15.5576 22.6974L16.94 20.4224L17.4826 19.5299L16.94 18.6374L15.5576 16.3624L17.955 15.0499L18.9001 14.5424V10.8849H22.7501L23.2925 9.99242L24.6751 7.71742L27.0726 9.02992L28.0175 9.53742L28.9626 9.02992L31.3601 7.71742L32.7426 9.99242L33.2851 10.8849H37.1351V14.5424L38.08 15.0499L40.4776 16.3624L39.095 18.6374L38.5526 19.5299L39.095 20.4224L40.4776 22.6974L39.5501 23.2049L38.08 24.0099L37.1351 24.5174V26.9674L28.0175 29.3299H27.9826H27.9476L18.9001 26.9674V24.5174L17.955 24.0099L16.4851 23.2049L15.575 22.6974H15.5576ZM12.8975 25.3049L16.0476 25.0249L17.0101 25.5499V26.4774L13.8076 25.6374L12.5826 25.3224L12.8975 25.2874V25.3049ZM6.24757 29.9774L7.45504 27.7899L8.38254 26.0924L9.32756 26.3374L13.2825 27.3699L17.0275 28.3499L23.9226 30.1524L25.3051 30.5024L24.9201 31.2549L23.7651 33.4424L23.2575 34.4049L9.32756 30.8174L7.45504 30.3274L6.24757 30.0124V29.9774ZM27.0025 48.6499L9.32756 44.0999V32.6199L24.2376 36.4699L26.3376 32.4974L27.0025 31.2374V48.6499ZM46.69 44.0824L28.8751 48.6499V30.9749L29.6801 32.4974L31.7801 36.4699L46.7076 32.6199V44.0999L46.69 44.0824ZM46.69 30.7649L32.7601 34.3699L32.2525 33.4074L31.0976 31.2199L30.695 30.4499L32.095 30.0824L38.9901 28.2974L46.69 26.3024L47.6176 26.0749L48.5626 27.7899L49.7525 29.9774L48.5626 30.2924L46.69 30.7824V30.7649Z" fill="black"/>
<path d="M49 17.9375H45.5V19.6875H49V17.9375Z" fill="black"/>
<path d="M48.125 17.0625H46.375V20.5625H48.125V17.0625Z" fill="black"/>
<path d="M12.25 10.9375H8.75V12.6875H12.25V10.9375Z" fill="black"/>
<path d="M11.375 10.0625H9.625V13.5625H11.375V10.0625Z" fill="black"/>
<path d="M24.5 15.75C24.99 15.75 25.375 16.135 25.375 16.625C25.375 17.115 24.99 17.5 24.5 17.5C24.01 17.5 23.625 17.115 23.625 16.625C23.625 16.135 24.01 15.75 24.5 15.75ZM24.5 14C23.0475 14 21.875 15.1725 21.875 16.625C21.875 18.0775 23.0475 19.25 24.5 19.25C25.9525 19.25 27.125 18.0775 27.125 16.625C27.125 15.1725 25.9525 14 24.5 14Z" fill="black"/>
<path d="M31.5 22.75C31.99 22.75 32.375 23.135 32.375 23.625C32.375 24.115 31.99 24.5 31.5 24.5C31.01 24.5 30.625 24.115 30.625 23.625C30.625 23.135 31.01 22.75 31.5 22.75ZM31.5 21C30.0475 21 28.875 22.1725 28.875 23.625C28.875 25.0775 30.0475 26.25 31.5 26.25C32.9525 26.25 34.125 25.0775 34.125 23.625C34.125 22.1725 32.9525 21 31.5 21Z" fill="black"/>
<path d="M31.7565 15.137L23.0078 23.8856L24.2453 25.1231L32.9939 16.3744L31.7565 15.137Z" fill="black"/>
</svg>
