<svg width="189" height="158" viewBox="0 0 189 158" fill="none" xmlns="http://www.w3.org/2000/svg">
<g clip-path="url(#clip0_766_3592)">
<g opacity="0.1">
<path d="M148.548 -95.6215C148.548 -95.6215 162.837 -53.5887 192.145 -46.7694C220.157 -40.2473 233.724 2.55464 233.724 2.55464" stroke="#999999" stroke-width="2.49734" stroke-miterlimit="10"/>
<path d="M137.57 -93.9049C137.57 -93.9049 154.142 -44.0751 188.435 -35.9424C221.199 -28.1954 236.853 22.5588 236.853 22.5588" stroke="#999999" stroke-width="2.49734" stroke-miterlimit="10"/>
<path d="M126.591 -92.1882C126.591 -92.1882 145.419 -34.5262 184.758 -25.0896C222.28 -16.0872 239.99 42.6241 239.99 42.6241" stroke="#999999" stroke-width="2.49734" stroke-miterlimit="10"/>
<path d="M115.583 -90.4663C115.583 -90.4663 136.666 -24.9722 181.02 -14.2269C223.325 -4.0044 243.123 62.6592 243.123 62.6592" stroke="#999999" stroke-width="2.49734" stroke-miterlimit="10"/>
<path d="M104.605 -88.7497C104.605 -88.7497 127.939 -15.4539 177.34 -3.40458C224.372 8.07801 246.257 82.6939 246.257 82.6939" stroke="#999999" stroke-width="2.49734" stroke-miterlimit="10"/>
<path d="M93.6272 -87.0326C93.6272 -87.0326 119.248 -5.90933 173.634 7.45343C225.449 20.1561 249.386 102.699 249.386 102.699" stroke="#999999" stroke-width="2.49734" stroke-miterlimit="10"/>
<path d="M82.6182 -85.3115C82.6182 -85.3115 110.494 3.64394 169.922 18.2801C226.494 32.2382 252.518 122.733 252.518 122.733" stroke="#999999" stroke-width="2.49734" stroke-miterlimit="10"/>
<path d="M71.6397 -83.5944C71.6397 -83.5944 101.767 13.1628 166.215 29.1382C227.571 44.3164 255.651 142.768 255.651 142.768" stroke="#999999" stroke-width="2.49734" stroke-miterlimit="10"/>
<path d="M60.6621 -81.8773C60.6621 -81.8773 93.0453 22.712 162.504 39.9656C228.617 56.3991 258.785 162.803 258.785 162.803" stroke="#999999" stroke-width="2.49734" stroke-miterlimit="10"/>
<path d="M49.6536 -80.1563C49.6536 -80.1563 84.323 32.2605 158.798 50.8228C229.663 68.4812 261.913 182.807 261.913 182.807" stroke="#999999" stroke-width="2.49734" stroke-miterlimit="10"/>
<path d="M38.6755 -78.4388C38.6755 -78.4388 75.5959 41.7796 155.086 61.6506C230.74 80.5596 265.047 202.843 265.047 202.843" stroke="#999999" stroke-width="2.49734" stroke-miterlimit="10"/>
<path d="M27.6976 -76.7221C27.6976 -76.7221 66.8739 51.3286 151.41 72.5035C231.786 92.6421 268.18 222.877 268.18 222.877" stroke="#999999" stroke-width="2.49734" stroke-miterlimit="10"/>
<path d="M16.689 -75.0013C16.689 -75.0013 58.1516 60.8768 147.673 83.3652C232.832 104.724 271.313 242.911 271.313 242.911" stroke="#999999" stroke-width="2.49734" stroke-miterlimit="10"/>
<path d="M5.71092 -73.2836C5.71092 -73.2836 49.4246 70.3961 143.992 94.1885C233.909 116.803 274.447 262.947 274.447 262.947" stroke="#999999" stroke-width="2.49734" stroke-miterlimit="10"/>
<path d="M-5.2667 -71.5667C-5.2667 -71.5667 40.7028 79.9452 140.286 105.046C234.955 128.885 277.575 282.952 277.575 282.952" stroke="#999999" stroke-width="2.49734" stroke-miterlimit="10"/>
<path d="M-16.2755 -69.8452C-16.2755 -69.8452 31.9498 89.4989 136.575 115.873C236.006 140.998 280.708 302.986 280.708 302.986" stroke="#999999" stroke-width="2.49734" stroke-miterlimit="10"/>
<path d="M-27.2536 -68.1278C-27.2536 -68.1278 23.2532 99.0132 132.868 126.732C237.082 153.077 283.842 323.022 283.842 323.022" stroke="#999999" stroke-width="2.49734" stroke-miterlimit="10"/>
</g>
</g>
<defs>
<clipPath id="clip0_766_3592">
<rect width="189" height="158" fill="white"/>
</clipPath>
</defs>
</svg>
