<svg width="156" height="156" viewBox="0 0 156 156" fill="none" xmlns="http://www.w3.org/2000/svg">
<g clip-path="url(#clip0_766_3520)">
<g opacity="0.1">
<path d="M4.43382 233.806C4.43382 233.806 -43.1266 149.807 -106.905 147.75C-167.628 145.777 -213.749 59.7835 -213.749 59.7835" stroke="#999999" stroke-width="2.49734" stroke-miterlimit="10"/>
<path d="M17.4725 228.867C17.4725 228.867 -34.9145 135.844 -105.154 133.459C-172.066 131.222 -222.751 36.0224 -222.751 36.0224" stroke="#999999" stroke-width="2.49734" stroke-miterlimit="10"/>
<path d="M30.5496 223.913C30.5496 223.913 -26.6278 121.854 -103.387 119.205C-176.465 116.653 -231.765 12.2252 -231.765 12.2252" stroke="#999999" stroke-width="2.49734" stroke-miterlimit="10"/>
<path d="M43.5895 218.973C43.5895 218.973 -18.3645 107.913 -101.635 104.914C-180.902 102.097 -240.78 -11.5726 -240.78 -11.5726" stroke="#999999" stroke-width="2.49734" stroke-miterlimit="10"/>
<path d="M56.6287 214.034C56.6287 214.034 -10.1158 93.9359 -99.8701 90.6598C-185.304 87.5279 -249.795 -35.3698 -249.795 -35.3698" stroke="#999999" stroke-width="2.49734" stroke-miterlimit="10"/>
<path d="M69.7047 209.08C69.7047 209.08 -1.86631 79.9594 -98.1182 76.3696C-189.705 72.9592 -258.797 -59.1306 -258.797 -59.1306" stroke="#999999" stroke-width="2.49734" stroke-miterlimit="10"/>
<path d="M82.7443 204.14C82.7443 204.14 6.39668 66.0181 -96.3526 62.1146C-194.142 58.403 -267.812 -82.9286 -267.812 -82.9286" stroke="#999999" stroke-width="2.49734" stroke-miterlimit="10"/>
<path d="M95.7842 199.2C95.7842 199.2 14.6462 52.0411 -94.6367 47.8377C-198.542 43.8338 -276.827 -106.726 -276.827 -106.726" stroke="#999999" stroke-width="2.49734" stroke-miterlimit="10"/>
<path d="M108.86 194.248C108.86 194.248 22.8956 38.0651 -92.8485 33.5342C-202.943 29.2655 -285.842 -130.522 -285.842 -130.522" stroke="#999999" stroke-width="2.49734" stroke-miterlimit="10"/>
<path d="M121.9 189.307C121.9 189.307 31.1585 24.1234 -91.1193 19.2925C-207.38 14.709 -294.857 -154.321 -294.857 -154.321" stroke="#999999" stroke-width="2.49734" stroke-miterlimit="10"/>
<path d="M134.939 184.367C134.939 184.367 39.4071 10.1467 -89.3682 5.00214C-211.782 0.140021 -303.859 -178.082 -303.859 -178.082" stroke="#999999" stroke-width="2.49734" stroke-miterlimit="10"/>
<path d="M148.015 179.414C148.015 179.414 47.6933 -3.84432 -87.6018 -9.25261C-216.196 -14.4658 -312.873 -201.879 -312.873 -201.879" stroke="#999999" stroke-width="2.49734" stroke-miterlimit="10"/>
<path d="M161.055 174.473C161.055 174.473 55.92 -17.7717 -85.8501 -23.5436C-220.633 -29.0216 -321.889 -225.677 -321.889 -225.677" stroke="#999999" stroke-width="2.49734" stroke-miterlimit="10"/>
</g>
</g>
<defs>
<clipPath id="clip0_766_3520">
<rect width="156" height="156" fill="white"/>
</clipPath>
</defs>
</svg>
