<svg width="96" height="96" viewBox="0 0 96 96" fill="none" xmlns="http://www.w3.org/2000/svg">
<path d="M96 0H0V96H96V0Z" fill="white"/>
<path d="M16.26 28.08C16.26 28.08 16.47 28.08 16.56 28.08L79.11 34.56C80.64 34.71 81.75 36.09 81.6 37.62L77.43 77.94C77.28 79.38 76.08 80.46 74.67 80.46C74.58 80.46 74.46 80.46 74.37 80.46L11.82 73.98C11.07 73.89 10.41 73.53 9.93 72.96C9.45 72.39 9.24001 71.64 9.33001 70.92L13.5 30.6C13.65 29.16 14.85 28.08 16.29 28.08M16.29 25.08C13.35 25.08 10.83 27.3 10.53 30.27L6.36001 70.59C6.03001 73.77 8.33999 76.62 11.52 76.95L74.07 83.43C74.28 83.43 74.46 83.46 74.67 83.46C77.61 83.46 80.13 81.24 80.43 78.27L84.6 37.95C84.93 34.77 82.62 31.92 79.44 31.59L16.89 25.11C16.68 25.11 16.5 25.08 16.29 25.08Z" fill="black"/>
<path d="M16.2795 58.7663L15.9701 61.7503L46.6755 64.9342L46.9849 61.9502L16.2795 58.7663Z" fill="black"/>
<path d="M18.059 43.6569L17.5516 48.5506C17.3909 50.0998 18.5165 51.4858 20.0657 51.6464L24.9594 52.1539C26.5086 52.3145 27.8946 51.1889 28.0552 49.6398L28.5627 44.746C28.7233 43.1969 27.5977 41.8108 26.0486 41.6502L21.1548 41.1427C19.6057 40.9821 18.2196 42.1077 18.059 43.6569Z" fill="#08A45E"/>
<path d="M68.97 55.77C68.55 55.77 68.13 55.77 67.71 55.74C57 55.05 48.87 45.81 49.53 35.1C50.19 24.9 58.68 16.89 68.91 16.89C69.33 16.89 69.75 16.89 70.17 16.92C80.88 17.61 89.01 26.85 88.35 37.56C87.69 47.76 79.2 55.77 68.97 55.77Z" fill="#08A45E"/>
<path d="M68.94 18.39C69.33 18.39 69.72 18.39 70.08 18.42C79.95 19.05 87.48 27.6 86.85 37.47C86.25 46.89 78.39 54.27 68.97 54.27C68.58 54.27 68.19 54.27 67.8 54.24C57.93 53.61 50.4 45.06 51.03 35.19C51.63 25.77 59.49 18.39 68.91 18.39M68.91 15.39C57.96 15.39 48.72 23.91 48.03 35.01C47.31 46.56 56.07 56.52 67.59 57.24C68.04 57.24 68.49 57.27 68.94 57.27C79.89 57.27 89.13 48.75 89.82 37.65C90.54 26.1 81.78 16.14 70.26 15.42C69.81 15.42 69.36 15.39 68.91 15.39Z" fill="black"/>
<path d="M65.58 44.85L57.51 35.67L59.76 33.69L65.85 40.62L78.75 29.28L80.73 31.53L65.58 44.85Z" fill="black"/>
<path d="M47.28 21.96L44.55 20.73C47.7 13.77 54.39 11.88 54.69 11.82L55.47 14.73C55.47 14.73 49.86 16.35 47.28 21.99V21.96Z" fill="black"/>
<path d="M15.6324 65.2166L15.3235 68.2007L31.3478 69.8595L31.6567 66.8754L15.6324 65.2166Z" fill="black"/>
<path d="M60.75 74.31C63.898 74.31 66.45 71.7581 66.45 68.61C66.45 65.462 63.898 62.91 60.75 62.91C57.602 62.91 55.05 65.462 55.05 68.61C55.05 71.7581 57.602 74.31 60.75 74.31Z" fill="#08A45E"/>
<path d="M68.97 75.12C72.118 75.12 74.67 72.568 74.67 69.42C74.67 66.2719 72.118 63.72 68.97 63.72C65.822 63.72 63.27 66.2719 63.27 69.42C63.27 72.568 65.822 75.12 68.97 75.12Z" fill="#08A45E"/>
</svg>
