<svg width="96" height="96" viewBox="0 0 96 96" fill="none" xmlns="http://www.w3.org/2000/svg">
<path d="M96 0H0V96H96V0Z" fill="white"/>
<path d="M30.66 70.77C28.14 70.77 25.74 69.7799 23.94 68.0099C21.99 66.09 20.97 63.4199 21.15 60.6899L22.65 36.12L68.91 32.7L74.01 56.76C74.58 59.43 73.95 62.2199 72.3 64.4399C70.65 66.6299 68.1 68.0399 65.37 68.2199L31.38 70.7399C31.14 70.7399 30.9 70.7399 30.66 70.7399V70.77ZM25.5 38.91L24.15 60.84C24.03 62.7 24.72 64.53 26.07 65.85C27.42 67.17 29.28 67.8599 31.17 67.7099L65.16 65.1899C67.05 65.0399 68.79 64.11 69.93 62.58C71.07 61.08 71.49 59.16 71.1 57.33L66.54 35.82L25.53 38.85L25.5 38.91Z" fill="black"/>
<path d="M6.00001 13.8L14.82 13.92L29.97 8.31004C32.82 7.02004 36.12 7.11004 38.88 8.58004L47.67 13.26C48.84 13.89 49.77 14.82 50.4 15.99L50.88 16.92C51.9 18.84 52.32 21.03 52.08 23.16L51.69 26.76C51.54 28.08 50.31 28.95 49.02 28.65L47.91 28.38C46.11 27.96 44.7 26.58 44.25 24.81L43.26 21C42.93 19.77 41.97 18.81 40.71 18.48L35.7 17.28C33.99 16.86 32.25 17.73 31.5 19.32C30.81 20.85 31.77 22.62 33.42 22.86L40.32 23.85C42.12 24.12 43.38 25.74 43.17 27.57C42.96 29.31 41.64 30.69 39.9 30.96L27.51 32.88L26.22 33.15C21.69 34.08 17.01 32.79 13.62 29.64H5.97002" fill="white"/>
<path d="M23.37 34.95C19.62 34.95 15.96 33.63 13.08 31.14H6V28.14H13.65C14.04 28.14 14.4 28.29 14.67 28.53C17.7 31.32 21.9 32.49 25.95 31.68L27.24 31.41L39.69 29.49C40.74 29.34 41.58 28.47 41.7 27.39C41.82 26.37 41.13 25.47 40.11 25.35L33.21 24.36C31.95 24.18 30.87 23.43 30.27 22.32C29.67 21.21 29.61 19.89 30.15 18.72C31.17 16.47 33.69 15.27 36.06 15.84L41.07 17.04C42.87 17.46 44.25 18.84 44.7 20.64L45.69 24.45C46.02 25.71 46.98 26.64 48.24 26.94L49.35 27.18C49.62 27.24 49.83 27.15 49.92 27.06C50.01 27 50.19 26.85 50.22 26.58L50.61 22.98C50.82 21.12 50.46 19.26 49.59 17.58L49.11 16.65C48.63 15.75 47.91 15.03 47.01 14.55L38.22 9.87C35.88 8.61 33.06 8.52 30.63 9.63L15.39 15.27C15.21 15.33 15 15.36 14.85 15.36L6.02999 15.24V12.24L14.61 12.36L29.49 6.84C32.64 5.4 36.48 5.52 39.63 7.2L48.42 11.88C49.86 12.63 51 13.8 51.75 15.24L52.23 16.17C53.4 18.36 53.85 20.82 53.58 23.28L53.19 26.88C53.07 27.93 52.53 28.89 51.66 29.49C50.79 30.09 49.71 30.33 48.69 30.09L47.58 29.85C46.44 29.58 45.42 29.04 44.61 28.26C44.13 30.42 42.39 32.1 40.17 32.43L26.58 34.59C25.53 34.8 24.45 34.92 23.4 34.92L23.37 34.95ZM34.83 18.72C33.99 18.72 33.21 19.2 32.85 19.98C32.73 20.28 32.73 20.61 32.88 20.88C32.97 21.06 33.18 21.33 33.63 21.39L40.53 22.38C41.13 22.47 41.67 22.65 42.18 22.92L41.79 21.39C41.61 20.7 41.07 20.13 40.35 19.98L35.34 18.78C35.16 18.75 35.01 18.72 34.83 18.72Z" fill="black"/>
<path d="M60.42 37.3499C60.15 33.5099 58.38 30.0299 55.47 27.5099C52.56 25.0199 48.87 23.7899 45.03 24.0599C43.59 24.1799 42.15 24.4799 40.8 25.0199L39.69 22.2299C41.31 21.5999 43.02 21.2099 44.79 21.0599C54.39 20.3399 62.7 27.5699 63.39 37.1099L60.39 37.3199L60.42 37.3499Z" fill="black"/>
<path d="M29.37 39.21C29.16 36.45 29.64 33.66 30.72 31.14L33.48 32.31C32.58 34.44 32.19 36.69 32.37 39L29.37 39.21Z" fill="black"/>
<path d="M41.7 56.7601L41.07 48.0301L52.44 47.1901L53.07 55.9201L41.7 56.7601ZM44.28 50.8201L44.49 53.5501L49.89 53.1601L49.68 50.4301L44.28 50.8201Z" fill="black"/>
<path d="M31.77 50.82C29.61 50.82 27.57 49.95 26.07 48.36C24.57 46.77 23.79 44.7 23.91 42.54L24.15 37.56L67.65 34.35L68.64 39.24C69.09 41.46 68.55 43.77 67.2 45.57C65.82 47.37 63.75 48.51 61.5 48.66L32.37 50.82C32.16 50.82 31.98 50.82 31.77 50.82Z" fill="#009245"/>
<path d="M66.45 35.91L67.17 39.51C67.53 41.34 67.11 43.14 66 44.64C64.89 46.11 63.24 47.01 61.38 47.16L32.25 49.32C32.1 49.32 31.92 49.32 31.77 49.32C30 49.32 28.38 48.6 27.15 47.34C25.92 46.05 25.32 44.37 25.41 42.6L25.59 38.94L66.45 35.94M68.88 32.76L22.74 36.15L22.41 42.45C22.14 47.85 26.46 52.32 31.77 52.32C32.01 52.32 32.25 52.32 32.46 52.32L61.59 50.16C67.23 49.74 71.22 44.49 70.11 38.94L68.88 32.73V32.76Z" fill="black"/>
<path d="M90 72.42H78.6C76.92 69.06 75.15 66.96 71.88 65.01L64.41 60.57C62.85 59.64 60.84 59.91 59.58 61.23C58.26 62.61 58.17 64.74 59.34 66.27L65.34 72.81L52.11 71.61L34.68 63.66C32.91 62.73 30.75 63.45 29.85 65.22C29.04 66.81 29.58 68.76 31.05 69.75L52.77 84.15C54.66 85.41 56.82 86.16 59.07 86.4L74.46 87.93L89.91 88.62" fill="white"/>
<path d="M89.94 90.06L74.49 89.37L59.01 87.81C56.52 87.57 54.12 86.7 52.02 85.32L30.3 70.92C28.17 69.51 27.45 66.75 28.59 64.47C29.19 63.24 30.24 62.34 31.56 61.95C32.85 61.53 34.26 61.65 35.46 62.28L52.59 70.08L61.71 70.92L58.32 67.23C56.58 65.04 56.73 62.1 58.56 60.15C60.3 58.32 63.06 57.93 65.22 59.25L72.69 63.69C75.78 65.52 77.76 67.59 79.53 70.89H90.03V73.89H78.63C78.06 73.89 77.55 73.56 77.28 73.05C75.63 69.75 74.01 67.98 71.16 66.27L63.69 61.8C62.73 61.23 61.5 61.41 60.72 62.19C59.91 63.03 59.85 64.32 60.57 65.25L66.51 71.7C66.93 72.15 67.02 72.84 66.75 73.38C66.48 73.95 65.94 74.28 65.28 74.22L52.05 73.02C51.87 73.02 51.72 72.96 51.57 72.9L34.14 64.95C33.57 64.65 33 64.62 32.49 64.77C31.95 64.95 31.53 65.31 31.29 65.79C30.84 66.69 31.14 67.83 31.98 68.37L53.7 82.77C55.38 83.88 57.33 84.57 59.34 84.78L74.73 86.31L90.12 87L90 90L89.94 90.06Z" fill="black"/>
<path d="M25.35 77.2801C19.11 77.2801 14.01 72.1801 14.01 65.9401H17.01C17.01 70.5301 20.76 74.2801 25.35 74.2801V77.2801Z" fill="black"/>
<path d="M78.15 34.83H75.15C75.15 30.24 71.4 26.49 66.81 26.49V23.49C73.08 23.49 78.15 28.59 78.15 34.83Z" fill="black"/>
</svg>
