<svg width="96" height="96" viewBox="0 0 96 96" fill="none" xmlns="http://www.w3.org/2000/svg">
<path d="M96 0H0V96H96V0Z" fill="white"/>
<path d="M61.5 18V21C75.54 21 86.94 32.43 86.94 46.44C86.94 60.45 75.51 71.88 61.5 71.88H34.5C20.46 71.88 9.05997 60.45 9.05997 46.44C9.05997 32.43 20.46 21 34.5 21V18C18.81 18 6.05997 30.75 6.05997 46.44C6.05997 58.41 13.5 68.67 24 72.87V90L39.12 74.88H61.53C77.22 74.88 89.97 62.13 89.97 46.44C89.97 30.75 77.22 18 61.53 18H61.5Z" fill="black"/>
<path d="M69.15 32.67L76.71 33.51L75.06 48.69L67.5 47.88" fill="#08A45E"/>
<path d="M76.38 50.34L67.35 49.3799L67.65 46.38L73.71 47.04L75.03 34.83L68.97 34.17L69.3 31.2L78.36 32.16L76.38 50.34Z" fill="black"/>
<path d="M48.36 7.26001C46.95 20.22 55.92 31.8 68.37 33.15C71.85 14.52 60.81 8.61001 48.36 7.26001Z" fill="#08A45E"/>
<path d="M30.93 22.47C31.8 14.37 39.06 8.51999 47.16 9.41999C46.29 17.52 39.03 23.37 30.93 22.47Z" fill="#08A45E"/>
<path d="M48.36 64.35C47.61 64.35 46.86 64.32 46.08 64.23L46.41 61.26C56.28 62.34 65.22 55.14 66.27 45.24L68.01 29.04C68.52 24.24 67.14 19.53 64.11 15.78C61.08 12.03 56.79 9.65996 51.99 9.14996C42.15 8.09996 33.18 15.27 32.13 25.17L30.03 44.76L27.06 44.43L29.16 24.84C30.42 13.29 40.77 4.91996 52.35 6.17996C57.93 6.77996 62.97 9.50996 66.48 13.89C69.99 18.27 71.61 23.76 71.01 29.34L69.27 45.54C68.1 56.31 58.95 64.32 48.36 64.32V64.35Z" fill="black"/>
<path d="M48.09 53.79C47.79 53.79 47.46 53.79 47.16 53.73C44.88 53.49 42.84 52.38 41.4 50.58C39.96 48.78 39.3 46.56 39.54 44.28L39.69 42.78L56.76 44.61L56.61 46.11C56.37 48.39 55.26 50.43 53.46 51.87C51.93 53.1 50.04 53.76 48.09 53.76V53.79ZM42.57 46.11C42.72 47.04 43.11 47.94 43.74 48.69C44.67 49.86 46.02 50.58 47.49 50.73C48.96 50.88 50.43 50.46 51.6 49.53C52.35 48.93 52.95 48.15 53.28 47.25L42.6 46.11H42.57Z" fill="black"/>
<path d="M45.81 67.2C44.61 67.08 43.53 66.48 42.78 65.55C42.03 64.62 41.67 63.45 41.82 62.25C42.06 59.97 43.98 58.23 46.29 58.23C46.44 58.23 46.62 58.23 46.77 58.23C47.97 58.35 49.05 58.95 49.8 59.88C50.55 60.81 50.91 61.98 50.76 63.18C50.52 65.46 48.6 67.2 46.29 67.2C46.14 67.2 45.96 67.2 45.81 67.2Z" fill="#08A45E"/>
<path d="M46.29 59.73C46.29 59.73 46.5 59.73 46.62 59.73C47.43 59.82 48.12 60.21 48.63 60.84C49.14 61.47 49.35 62.25 49.29 63.03C49.11 64.56 47.85 65.7 46.32 65.7C46.2 65.7 46.11 65.7 45.99 65.7C44.34 65.52 43.14 64.05 43.32 62.4C43.5 60.87 44.76 59.73 46.29 59.73ZM46.29 56.73C43.26 56.73 40.65 59.01 40.32 62.1C39.96 65.4 42.36 68.34 45.63 68.7C45.84 68.7 46.08 68.73 46.29 68.73C49.32 68.73 51.93 66.45 52.26 63.36C52.62 60.06 50.22 57.12 46.95 56.76C46.74 56.76 46.5 56.73 46.29 56.73Z" fill="black"/>
<path d="M69.57 35.31C62.76 34.56 56.67 31.23 52.35 25.89C48.06 20.55 46.11 13.89 46.83 7.08002L49.8 7.41002C49.14 13.41 50.88 19.32 54.66 24.03C58.44 28.74 63.84 31.68 69.84 32.34L69.51 35.31H69.57Z" fill="black"/>
<path d="M31.47 24.96C30.84 24.96 30.24 24.93 29.61 24.87L29.94 21.9C37.77 22.74 44.79 17.07 45.63 9.27002L48.6 9.60002C47.64 18.42 40.14 24.99 31.47 24.99V24.96Z" fill="black"/>
<path d="M29.16 44.64L27.06 44.4C23.22 43.98 20.46 40.53 20.85 36.72L21.3 32.43C21.51 30.57 22.41 28.92 23.85 27.75C25.29 26.58 27.12 26.04 28.98 26.25L31.08 26.49L30.75 29.46L28.65 29.22C27.6 29.1 26.55 29.4 25.74 30.09C24.9 30.75 24.39 31.71 24.27 32.76L23.82 37.05C23.58 39.24 25.17 41.19 27.36 41.43L29.46 41.67L29.13 44.64H29.16Z" fill="black"/>
<path d="M8.87996 23.85L6.23996 22.44C9.38996 16.53 18.84 11.1 24.06 10.98L24.12 13.98C19.8 14.07 11.49 18.99 8.87996 23.85Z" fill="black"/>
<path d="M81.21 79.5H72.21V82.5H81.21V79.5Z" fill="black"/>
<path d="M78.21 76.5H75.21V85.5H78.21V76.5Z" fill="black"/>
</svg>
