<svg width="56" height="56" viewBox="0 0 56 56" fill="none" xmlns="http://www.w3.org/2000/svg">
<path d="M21.7525 31.5H20.0025V37.9925H21.7525V31.5Z" fill="black"/>
<path d="M34.8775 36.2425V29.75" stroke="black" stroke-miterlimit="10"/>
<path d="M35.9974 29.75H19.7749C14.3849 29.75 10.0099 34.125 10.0099 39.515V41.125H11.7599V39.515C11.7599 35.105 15.3474 31.5 19.7749 31.5H35.9974C40.4074 31.5 44.0125 35.0875 44.0125 39.515V50.75H11.7599V46.375H10.0099V52.5H45.7625V39.515C45.7625 34.125 41.3874 29.75 35.9974 29.75Z" fill="black"/>
<path d="M19.1275 42V45.5H10.3775V42H19.1275ZM20.8775 40.25H8.62749V47.25H20.8775V40.25Z" fill="black"/>
<path d="M19.7575 36.75L16.5025 51.66H39.2525L35.9975 36.75H19.7575Z" fill="#08A45E"/>
<path d="M40.3375 52.535H15.4175L19.0575 35.875H36.715L40.3375 52.535ZM17.5875 50.785H38.1675L35.2975 37.625H20.4575L17.5875 50.785Z" fill="black"/>
<path d="M31.5875 43.3301V47.0401C31.5875 49.0876 29.925 50.7501 27.8775 50.7501C25.83 50.7501 24.1675 49.0876 24.1675 47.0401V43.3301H31.5875ZM33.3375 41.5801H22.4175V47.0401C22.4175 50.0501 24.8675 52.5001 27.8775 52.5001C30.8875 52.5001 33.3375 50.0501 33.3375 47.0401V41.5801Z" fill="black"/>
<path d="M24.0975 5.25C27.72 5.25 30.8175 7.9625 31.2725 11.585L32.0775 17.9025C32.3225 19.8275 31.7975 21.7175 30.625 23.2575C29.435 24.78 27.7375 25.76 25.8125 26.005C25.4975 26.04 25.1825 26.0575 24.885 26.0575C21.2625 26.0575 18.165 23.345 17.71 19.7225L16.905 13.405C16.66 11.48 17.185 9.59 18.3575 8.05C19.5475 6.5275 21.245 5.5475 23.17 5.3025C23.485 5.2675 23.8 5.25 24.0975 5.25ZM24.0975 3.5C23.7125 3.5 23.3275 3.5175 22.9425 3.57C18.0075 4.2 14.525 8.6975 15.155 13.6325L15.96 19.95C16.5375 24.5 20.405 27.8075 24.8675 27.8075C25.2525 27.8075 25.6375 27.79 26.0225 27.7375C30.9575 27.1075 34.44 22.61 33.81 17.675L33.005 11.3575C32.4275 6.8075 28.56 3.5 24.0975 3.5Z" fill="black"/>
<path d="M16.59 21.525C15.7325 21.525 14.91 21.245 14.21 20.7025C13.3875 20.0725 12.8625 19.1451 12.7225 18.1125C12.5825 17.08 12.8625 16.0475 13.51 15.225C14.1575 14.4025 15.0675 13.8775 16.1 13.7375L16.3275 15.47C15.75 15.54 15.2425 15.8375 14.8925 16.2925C14.5425 16.7476 14.385 17.3075 14.455 17.885C14.525 18.4625 14.8225 18.97 15.2775 19.32C15.7325 19.67 16.2925 19.8275 16.87 19.7575L17.0975 21.49C16.9225 21.5075 16.765 21.525 16.59 21.525Z" fill="black"/>
<path d="M33.11 19.4425L32.8825 17.71C34.055 17.5525 34.895 16.485 34.7375 15.295C34.58 14.105 33.5125 13.2825 32.3225 13.44L32.095 11.7075C34.23 11.445 36.19 12.95 36.47 15.085C36.75 17.22 35.2275 19.18 33.0925 19.46L33.11 19.4425Z" fill="black"/>
<path d="M37.9976 9.90386L15.9696 12.7218L16.1917 14.4577L38.2197 11.6397L37.9976 9.90386Z" fill="black"/>
<path d="M19.2675 12.53C18.9875 10.395 20.51 8.43503 22.645 8.15503C24.78 7.87503 26.74 9.39753 27.02 11.5325L25.2875 11.76C25.13 10.5875 24.045 9.73003 22.8725 9.90503C21.7 10.0625 20.86 11.13 21.0175 12.32L19.285 12.5475L19.2675 12.53Z" fill="black"/>
<path d="M24.99 23.5025C24.1325 23.5025 23.31 23.2225 22.61 22.68C21.7875 22.05 21.2625 21.1225 21.1225 20.09L22.855 19.8625C22.925 20.44 23.2225 20.9475 23.6775 21.2975C24.1325 21.6475 24.6925 21.805 25.27 21.735C25.8475 21.665 26.355 21.3675 26.705 20.9125C27.055 20.4575 27.2125 19.8975 27.1425 19.32L28.875 19.0925C29.015 20.125 28.735 21.1575 28.0875 21.98C27.44 22.8025 26.53 23.3275 25.4975 23.4675C25.3225 23.485 25.165 23.5025 24.99 23.5025Z" fill="black"/>
<path d="M41.93 48.125C36.5925 48.125 32.2525 43.785 32.2525 38.4475C32.2525 33.11 36.5925 28.77 41.93 28.77C47.2675 28.77 51.6075 33.11 51.6075 38.4475C51.6075 43.785 47.2675 48.125 41.93 48.125Z" fill="#08A45E"/>
<path d="M41.93 29.6625C46.7775 29.6625 50.7325 33.6175 50.7325 38.465C50.7325 43.3125 46.7775 47.2675 41.93 47.2675C37.0825 47.2675 33.1275 43.3125 33.1275 38.465C33.1275 33.6175 37.0825 29.6625 41.93 29.6625ZM41.93 27.9125C36.1025 27.9125 31.3775 32.6375 31.3775 38.465C31.3775 44.2925 36.1025 49.0175 41.93 49.0175C47.7575 49.0175 52.4825 44.2925 52.4825 38.465C52.4825 32.6375 47.7575 27.9125 41.93 27.9125Z" fill="black"/>
<path d="M40.5125 43.015L36.0675 38.57L37.31 37.3275L40.5125 40.5475L46.55 34.51L47.775 35.7525L40.5125 43.015Z" fill="black"/>
<path d="M12.25 24.5H7V26.25H12.25V24.5Z" fill="black"/>
<path d="M10.5 22.75H8.75V28H10.5V22.75Z" fill="black"/>
<path d="M39.06 23.6775L38.08 22.225L38.57 22.96L38.08 22.2425C38.22 22.1375 41.51 19.8275 41.195 14.2625L42.945 14.175C43.3125 20.7725 39.235 23.59 39.06 23.695V23.6775Z" fill="black"/>
<path d="M44.45 23.5726L43.2075 22.3476C43.365 22.1726 47.0925 18.1476 44.3975 8.87257L46.0775 8.38257C49.0875 18.7076 44.66 23.3626 44.4675 23.5551L44.45 23.5726Z" fill="black"/>
</svg>
