<svg width="92" height="23" viewBox="0 0 92 23" fill="none" xmlns="http://www.w3.org/2000/svg">
<path d="M88.7054 8.45357C88.6687 7.8067 88.6173 7.21129 88.61 6.61587C88.5953 5.0281 88.5953 3.44769 88.5953 1.85992C88.5953 1.41152 88.8376 1.16159 89.2854 1.15424C89.6671 1.14689 90.0562 1.14689 90.4379 1.16159C90.8123 1.1763 91.0326 1.40417 91.0472 1.78641C91.0472 1.85257 91.0472 1.91872 91.0472 1.98488C91.0472 8.57853 91.0472 15.1722 91.0472 21.7658C91.0472 21.8614 91.0472 21.9643 91.0472 22.0966C90.9078 22.0966 90.7756 22.0966 90.6508 22.0966C90.2324 22.0966 89.8139 22.0893 89.4028 22.104C89.212 22.1113 89.1312 22.0672 89.1092 21.8614C89.0651 21.3468 88.9991 20.8396 88.9403 20.3251C88.933 20.2516 88.9183 20.1854 88.8963 20.0678C88.8009 20.134 88.7348 20.1854 88.6687 20.2369C87.6189 21.1263 86.4737 21.854 85.1376 22.2363C84.0218 22.5524 82.8912 22.5597 81.7754 22.251C80.4907 21.8981 79.7052 21.0087 79.2133 19.8105C78.7361 18.6491 78.5379 17.4215 78.4719 16.1792C78.3764 14.5106 78.3911 12.8493 78.7435 11.2028C78.9123 10.4089 79.1693 9.64439 79.6318 8.96077C80.4173 7.8214 81.5551 7.3289 82.8839 7.20393C84.7559 7.02016 86.5398 7.36565 88.2282 8.21099C88.3677 8.29185 88.5145 8.35801 88.7054 8.45357ZM88.5953 14.1798C88.5953 12.9228 88.5953 11.6659 88.5953 10.4015C88.5953 10.2472 88.5586 10.1663 88.3971 10.1295C87.9126 10.0046 87.4354 9.85757 86.9582 9.7326C85.7983 9.43857 84.6311 9.29156 83.4418 9.45327C82.5462 9.57824 81.8561 10.0119 81.4964 10.8646C81.3422 11.2395 81.2248 11.6365 81.144 12.0334C80.9018 13.3198 80.8871 14.6209 80.9825 15.9146C81.0413 16.7085 81.1587 17.5097 81.3496 18.2816C81.5918 19.2445 82.2012 19.9061 83.2142 20.1193C84.2787 20.3471 85.3285 20.2516 86.2902 19.737C86.9949 19.3548 87.6483 18.8623 88.3237 18.4212C88.5219 18.2889 88.6026 18.1345 88.6026 17.892C88.5953 16.6644 88.5953 15.4221 88.5953 14.1798Z" fill="black"/>
<path d="M60.9191 22.0892C60.4713 22.0892 60.0235 22.0892 59.5757 22.0892C59.0178 22.0892 59.0178 22.0891 58.9444 21.5452C58.8636 20.9498 58.7976 20.347 58.7168 19.7001C58.6214 19.7884 58.548 19.8545 58.4819 19.9207C57.2339 21.1188 55.795 21.9642 54.0772 22.2803C52.8953 22.4934 51.7427 22.4126 50.6636 21.8613C49.6652 21.3541 49.0412 20.5308 48.843 19.4429C48.6301 18.252 48.6374 17.0465 48.8136 15.8557C49.0191 14.459 49.9882 13.5034 51.383 13.2462C51.8308 13.1653 52.2933 13.1212 52.7484 13.1138C54.547 13.0991 56.3456 13.1065 58.1442 13.1065C58.2396 13.1065 58.3351 13.1065 58.4599 13.1065C58.4599 12.886 58.4599 12.6949 58.4599 12.5037C58.4525 12.048 58.4819 11.5849 58.4232 11.1291C58.269 9.98977 57.623 9.40906 56.4043 9.3723C55.3252 9.3429 54.246 9.37965 53.1742 9.43111C52.1979 9.47521 51.2215 9.58547 50.2451 9.65898C49.8046 9.69574 49.5844 9.51197 49.5257 9.07827C49.4963 8.88715 49.4816 8.68868 49.4523 8.49756C49.3862 8.02711 49.5477 7.77718 50.0029 7.71838C51.5518 7.53461 53.1008 7.35819 54.6571 7.21117C55.6996 7.10826 56.7494 7.11561 57.7845 7.30673C59.2013 7.57136 60.2731 8.26969 60.6842 9.71779C60.8457 10.2838 60.9412 10.8866 60.9485 11.482C60.9705 14.9662 60.9632 18.4432 60.9632 21.9274C60.9412 21.9642 60.9338 22.0156 60.9191 22.0892ZM58.4378 15.0618C58.3718 15.0545 58.3204 15.0471 58.2763 15.0471C57.1458 15.0471 56.0226 15.0471 54.8921 15.0545C54.2167 15.0618 53.5339 15.0545 52.8586 15.0912C51.9629 15.1353 51.4491 15.5323 51.3096 16.407C51.1774 17.2597 51.1554 18.1344 51.3757 18.9871C51.5151 19.5311 51.8895 19.906 52.4328 20.0383C52.7852 20.1265 53.1595 20.1853 53.5193 20.1632C55.3546 20.075 56.9182 19.3106 58.291 18.1344C58.3938 18.0462 58.4525 17.8625 58.4525 17.7301C58.4672 16.9436 58.4525 16.1644 58.4525 15.3779C58.4599 15.2676 58.4452 15.1647 58.4378 15.0618Z" fill="black"/>
<path d="M29.9835 14.7826C29.9468 16.1352 29.8734 17.4216 29.543 18.6785C29.0145 20.6853 27.7371 21.8835 25.7036 22.2657C23.9785 22.5965 22.2606 22.5965 20.5575 22.1408C18.7809 21.6703 17.7165 20.4868 17.2246 18.7521C16.7988 17.2525 16.7254 15.7088 16.7694 14.1652C16.8062 13.0111 16.9236 11.8717 17.2613 10.7544C17.7972 9.00492 18.9277 7.88025 20.7116 7.45391C22.5616 7.01286 24.4189 7.01286 26.2616 7.51271C27.9647 7.97581 28.9925 9.11518 29.4917 10.7838C29.8881 12.1217 29.9395 13.4815 29.9835 14.7826ZM27.4288 14.7606C27.4068 13.7021 27.3701 12.5774 27.0397 11.4968C26.7167 10.4457 26.0413 9.76205 24.9548 9.50477C23.9931 9.2769 23.0314 9.2769 22.0624 9.43862C20.7777 9.65179 19.9702 10.4016 19.6839 11.6586C19.5224 12.3642 19.4196 13.092 19.3682 13.8123C19.2728 15.1722 19.3168 16.5248 19.6325 17.8553C19.9408 19.171 20.7337 19.9943 22.0991 20.2149C22.9654 20.3545 23.8243 20.3545 24.6832 20.2075C25.9606 19.987 26.7534 19.2519 27.0911 18.0023C27.3701 16.9585 27.4141 15.8926 27.4288 14.7606Z" fill="black"/>
<path d="M7.71781 22.1113C7.38012 22.1113 7.04977 22.1113 6.71207 22.1113C6.18351 22.1113 5.88987 21.9128 5.70634 21.413C5.47142 20.7808 5.24384 20.1413 5.00893 19.5018C3.93712 16.5982 2.87265 13.6946 1.80085 10.7911C1.52188 10.0413 1.23558 9.29153 0.978636 8.5344C0.912566 8.34328 0.905225 8.1007 0.949272 7.90223C1.008 7.66701 1.21355 7.53469 1.47049 7.53469C1.9183 7.53469 2.37345 7.52734 2.82127 7.53469C3.12225 7.54205 3.2911 7.68906 3.40122 8.00514C3.92244 9.53411 4.44366 11.0631 4.95754 12.5994C5.78709 15.0692 6.6093 17.5391 7.43885 20.009C7.48289 20.1339 7.50492 20.2662 7.70313 20.2662C7.894 20.2662 7.93071 20.1486 7.97475 20.0163C8.70887 17.8552 9.43564 15.7014 10.1698 13.5403C10.7938 11.6952 11.4178 9.84284 12.0491 7.99779C12.1665 7.65231 12.3501 7.52734 12.7098 7.52734C13.0842 7.52734 13.4586 7.52734 13.8403 7.52734C14.3909 7.53469 14.6699 7.90223 14.4864 8.43149C14.1854 9.29888 13.855 10.1663 13.5393 11.0337C12.3501 14.2607 11.1608 17.4877 9.97889 20.7073C9.88345 20.9719 9.78067 21.2439 9.6779 21.5085C9.51639 21.9128 9.21541 22.1039 8.78228 22.1039C8.41522 22.1039 8.06285 22.1113 7.71781 22.1113Z" fill="black"/>
<path d="M40.966 1.17627C41.7955 1.17627 42.5957 1.17627 43.4252 1.17627C43.4252 1.27183 43.4252 1.36004 43.4252 1.44825C43.4252 5.48383 43.4252 9.5194 43.4179 13.5623C43.4179 15.0472 43.4106 16.5394 43.4106 18.0243C43.4106 18.2227 43.4179 18.4212 43.4546 18.6123C43.6088 19.4724 44.1814 19.9722 45.0623 20.009C45.3853 20.0237 45.7157 20.0237 46.046 20.031C46.4645 20.0384 46.6994 20.2368 46.7801 20.6411C46.8242 20.8837 46.8682 21.1263 46.8976 21.3689C46.949 21.7879 46.7361 22.0892 46.325 22.1774C45.4808 22.3539 44.6292 22.4568 43.7703 22.3318C42.2213 22.1039 41.1862 21.0013 41.0394 19.443C41.0027 19.0681 40.988 18.6932 40.988 18.3183C40.988 12.717 40.988 7.12305 40.988 1.52176C40.966 1.41149 40.966 1.30858 40.966 1.17627Z" fill="black"/>
<path d="M36.3409 22.1041C35.5628 22.1041 34.814 22.1041 34.0578 22.0967C34.0064 22.0967 33.9404 22.0158 33.911 21.957C33.889 21.9129 33.9037 21.8468 33.9037 21.788C33.9037 17.2893 33.9037 12.7833 33.9037 8.28459C33.9037 8.17433 33.911 8.05672 33.9404 7.94645C34.0065 7.68918 34.1826 7.54216 34.4543 7.53481C34.8947 7.52746 35.3352 7.52746 35.7757 7.53481C36.0473 7.54216 36.2382 7.68918 36.2969 7.96115C36.3336 8.12287 36.3409 8.29929 36.3409 8.46836C36.3409 12.9303 36.3409 17.3922 36.3409 21.8468C36.3556 21.9276 36.3483 21.9938 36.3409 22.1041Z" fill="black"/>
<path d="M74.4709 22.0747C73.656 22.0747 72.8558 22.0747 72.0263 22.0747C72.0263 21.9791 72.0263 21.8909 72.0263 21.8027C72.0263 17.3113 72.0263 12.8127 72.0263 8.32134C72.0263 8.21108 72.0336 8.09347 72.063 7.98321C72.1364 7.68918 72.3273 7.54216 72.6283 7.53481C73.032 7.52746 73.4285 7.52746 73.8322 7.53481C74.1993 7.54216 74.4415 7.77004 74.4709 8.13757C74.4782 8.19638 74.4709 8.25519 74.4709 8.30664C74.4709 12.798 74.4709 17.2966 74.4709 21.788C74.4709 21.8835 74.4709 21.9717 74.4709 22.0747Z" fill="black"/>
<path d="M53.8864 0.5C53.9524 0.551455 54.0038 0.58821 54.0479 0.632314C55.0316 1.65407 56.0153 2.68318 57.0063 3.70494C57.1091 3.8152 57.1018 3.88871 56.999 3.99162C56.6466 4.35181 56.2869 4.712 55.9492 5.08689C55.8244 5.2192 55.7363 5.19715 55.6262 5.07954C54.6498 4.06513 53.6808 3.05807 52.7044 2.04366C52.587 1.92605 52.565 1.83049 52.6971 1.69818C53.0421 1.35269 53.3798 0.992502 53.7175 0.639664C53.7616 0.588209 53.8276 0.551455 53.8864 0.5Z" fill="black"/>
<path d="M65.0523 20.3471C65.0523 19.9795 65.0376 19.612 65.0596 19.2444C65.0816 18.8401 65.3019 18.6049 65.7056 18.5902C66.1608 18.5682 66.6233 18.5755 67.0784 18.5976C67.4235 18.6123 67.6143 18.796 67.651 19.1489C67.6878 19.5164 67.6951 19.884 67.6951 20.2515C67.6951 20.6705 67.6951 21.0821 67.6584 21.5011C67.629 21.8687 67.4382 22.0598 67.0784 22.0745C66.6086 22.0965 66.1314 22.0965 65.6616 22.0745C65.2872 22.0524 65.0816 21.8319 65.067 21.457C65.0376 21.0821 65.0523 20.7146 65.0523 20.3471Z" fill="black"/>
<path d="M74.5737 2.96261C74.5737 3.26399 74.581 3.56537 74.5737 3.86675C74.559 4.34455 74.3388 4.57243 73.8689 4.58713C73.4505 4.59448 73.032 4.60183 72.6209 4.58713C72.1511 4.57243 71.9309 4.34455 71.9235 3.88881C71.9162 3.27134 71.9162 2.64652 71.9235 2.02906C71.9309 1.57331 72.1658 1.33809 72.6209 1.32338C73.0394 1.31603 73.4578 1.31603 73.8689 1.32338C74.3167 1.33809 74.559 1.57331 74.5737 2.02906C74.581 2.34514 74.5737 2.65387 74.5737 2.96261Z" fill="black"/>
<path d="M36.4439 2.96245C36.4439 3.27118 36.4512 3.57992 36.4439 3.896C36.4365 4.3444 36.2383 4.57227 35.7978 4.59433C35.35 4.61638 34.9022 4.61638 34.4544 4.59433C34.0213 4.57227 33.8084 4.3297 33.8084 3.896C33.801 3.27854 33.801 2.65372 33.8084 2.03625C33.8157 1.58051 34.0286 1.35263 34.4838 1.33793C34.9242 1.32323 35.3647 1.32323 35.8052 1.33793C36.2383 1.35998 36.4365 1.57316 36.4512 2.00685C36.4512 2.32294 36.4439 2.63902 36.4439 2.96245Z" fill="black"/>
</svg>
