<svg width="83" height="85" viewBox="0 0 83 85" fill="none" xmlns="http://www.w3.org/2000/svg">
<g clip-path="url(#clip0_766_3591)">
<g opacity="0.1">
<path d="M3.15245 143.561C3.15245 143.561 -49.2901 59.7393 -114.068 60.6607C-175.729 61.5669 -226.661 -24.3619 -226.661 -24.3619" stroke="#999999" stroke-width="2.49734" stroke-miterlimit="10"/>
<path d="M13.0847 139.216C13.0847 139.216 -43.4303 48.5642 -113.253 49.5232C-179.716 50.4256 -234.591 -42.4889 -234.591 -42.4889" stroke="#999999" stroke-width="2.49734" stroke-miterlimit="10"/>
<path d="M23.0451 134.86C23.0451 134.86 -37.57 37.3893 -112.451 38.3584C-183.702 39.2846 -242.508 -60.588 -242.508 -60.588" stroke="#999999" stroke-width="2.49734" stroke-miterlimit="10"/>
<path d="M32.9776 130.515C32.9776 130.515 -31.6979 26.2412 -111.636 27.2203C-187.715 28.1547 -250.437 -78.7156 -250.437 -78.7156" stroke="#999999" stroke-width="2.49734" stroke-miterlimit="10"/>
<path d="M42.9104 126.17C42.9104 126.17 -25.8376 15.0662 -110.861 16.0673C-191.701 17.0135 -258.366 -96.8426 -258.366 -96.8426" stroke="#999999" stroke-width="2.49734" stroke-miterlimit="10"/>
<path d="M52.8707 121.814C52.8707 121.814 -19.9773 3.89168 -110.031 4.89071C-195.687 5.8728 -266.295 -114.969 -266.295 -114.969" stroke="#999999" stroke-width="2.49734" stroke-miterlimit="10"/>
<path d="M62.8034 117.469C62.8034 117.469 -14.1051 -7.25677 -109.244 -6.23569C-199.701 -5.25738 -274.224 -133.097 -274.224 -133.097" stroke="#999999" stroke-width="2.49734" stroke-miterlimit="10"/>
<path d="M72.7354 113.124C72.7354 113.124 -8.2455 -18.4318 -108.442 -17.4007C-203.687 -16.3985 -282.142 -151.196 -282.142 -151.196" stroke="#999999" stroke-width="2.49734" stroke-miterlimit="10"/>
<path d="M82.6961 108.767C82.6961 108.767 -2.35726 -29.6193 -107.627 -28.5385C-207.685 -27.5678 -290.07 -169.323 -290.07 -169.323" stroke="#999999" stroke-width="2.49734" stroke-miterlimit="10"/>
<path d="M92.6288 104.422C92.6288 104.422 3.48737 -40.7551 -106.824 -39.704C-211.698 -38.6974 -297.999 -187.451 -297.999 -187.451" stroke="#999999" stroke-width="2.49734" stroke-miterlimit="10"/>
</g>
</g>
<defs>
<clipPath id="clip0_766_3591">
<rect width="83" height="85" fill="white"/>
</clipPath>
</defs>
</svg>
