<svg width="56" height="56" viewBox="0 0 56 56" fill="none" xmlns="http://www.w3.org/2000/svg">
<path d="M48.58 52.6225L45.5875 30.975C45.4825 30.2575 44.87 29.715 44.135 29.715H12.0225C11.305 29.715 10.675 30.2575 10.57 30.975L7.57753 52.605L5.84503 52.36L8.83753 30.73C9.04753 29.155 10.43 27.965 12.0225 27.965H44.135C45.7275 27.965 47.0925 29.155 47.32 30.73L50.3125 52.3775L48.58 52.6225Z" fill="black"/>
<path d="M29.75 47.25V49H26.25V47.25H29.75ZM31.5 45.5H24.5V50.75H31.5V45.5Z" fill="black"/>
<path d="M15.7851 47.2501C13.4401 47.2501 11.2176 46.2176 9.71255 44.4151C8.20755 42.6126 7.57755 40.2501 7.99755 37.9401L9.52005 29.5401C9.59005 29.1551 9.92255 28.8926 10.3076 28.8926H45.9901C46.3751 28.8926 46.7076 29.1726 46.7776 29.5576L48.1776 38.0801C48.5451 40.3726 47.9151 42.7001 46.4101 44.4851C44.9051 46.2526 42.7001 47.2676 40.3901 47.2676H15.7851V47.2501Z" fill="#08A45E"/>
<path d="M45.9375 29.75L47.32 38.2025C47.6525 40.25 47.075 42.315 45.745 43.89C44.415 45.465 42.455 46.375 40.39 46.375H15.785C13.7025 46.375 11.725 45.4475 10.395 43.855C9.04753 42.245 8.50503 40.145 8.87253 38.0975L10.3775 29.7675H45.9375M46.0075 28.0175H10.325C9.52003 28.0175 8.82003 28.595 8.68003 29.3825L7.15753 37.7825C6.17753 43.1725 10.325 48.125 15.8025 48.125H40.4075C45.8325 48.125 49.945 43.26 49.07 37.9225L47.67 29.4C47.53 28.595 46.8475 28 46.025 28L46.0075 28.0175Z" fill="black"/>
<path d="M32.0607 19.6363L30.5063 20.4403L36.7212 32.4557L38.2756 31.6517L32.0607 19.6363Z" fill="black"/>
<path d="M12.0575 31.9725L11.1125 37.1C10.43 40.775 13.265 44.17 16.9925 44.17H39.1825C42.8575 44.17 45.6575 40.8975 45.0975 37.2575L44.275 31.9725H12.0575Z" fill="#08A45E"/>
<path d="M12.5999 33.845L10.8849 33.53L11.3399 31.0975H13.8074V32.8475H12.7924L12.5999 33.845Z" fill="black"/>
<path d="M36.4 45.0276H33.0575V43.2776H36.4V45.0276ZM29.7325 45.0276H26.39V43.2776H29.7325V45.0276ZM23.065 45.0276H19.7225V43.2776H23.065V45.0276ZM39.8125 44.9926L39.655 43.2426C40.6 43.1551 41.51 42.8051 42.28 42.2276L43.3475 43.6276C42.315 44.3976 41.1075 44.8701 39.83 44.9926H39.8125ZM16.31 44.9926C15.0325 44.8701 13.825 44.3801 12.81 43.5926L13.8775 42.2101C14.63 42.7876 15.54 43.1551 16.485 43.2601L16.31 45.0101V44.9926ZM45.605 40.6176L43.9775 39.9876C44.205 39.4101 44.31 38.7976 44.31 38.1676C44.31 37.9051 44.2925 37.6251 44.24 37.3626L44.205 37.1526L45.9375 36.8726L45.9725 37.0826C46.025 37.4501 46.06 37.8001 46.06 38.1501C46.06 38.9901 45.9025 39.8126 45.605 40.6001V40.6176ZM10.57 40.5476C10.29 39.7951 10.15 38.9901 10.15 38.1851C10.15 37.7651 10.185 37.3451 10.2725 36.9251L11.1475 36.9601L12.005 37.1176V37.2401C11.9175 37.5551 11.9 37.8701 11.9 38.1676C11.9 38.7626 12.005 39.3576 12.215 39.9176L10.57 40.5301V40.5476Z" fill="black"/>
<path d="M43.68 33.8275L43.5225 32.8475H42.525V31.0975H45.0275L45.4125 33.565L43.68 33.8275Z" fill="black"/>
<path d="M39.3401 32.8475H36.1551V31.0975H39.3401V32.8475ZM32.9526 32.8475H29.7676V31.0975H32.9526V32.8475ZM26.5651 32.8475H23.3801V31.0975H26.5651V32.8475ZM20.1776 32.8475H16.9926V31.0975H20.1776V32.8475Z" fill="black"/>
<path d="M16.0651 25.3399C13.3876 25.3399 10.7626 24.3774 8.69755 22.5924H3.50005V20.8424H9.36255L9.60755 21.0699C11.8476 23.1349 14.9626 23.9924 17.9376 23.3799L19.0401 23.1699H26.6701C28.0701 23.1699 29.2426 22.1199 29.4176 20.7199C29.5576 19.5299 28.7351 18.4624 27.5451 18.2874L23.1701 17.6574C22.3301 17.5349 21.5951 17.0274 21.1926 16.2749C20.7901 15.5224 20.7551 14.6474 21.1051 13.8599C21.8051 12.3374 23.5026 11.5149 25.1301 11.8999L28.7526 12.7749C29.9776 13.0724 30.9226 13.9999 31.2376 15.2249L31.9376 17.9724C32.1826 18.9524 32.9526 19.6874 33.9326 19.9149L34.7376 20.1074C34.9476 20.1599 35.1401 20.1074 35.3151 19.9849C35.4901 19.8624 35.5951 19.6874 35.6126 19.4774L35.8926 16.8699C36.0501 15.4874 35.7876 14.0874 35.1226 12.8624L34.7726 12.1974C34.4051 11.5149 33.8451 10.9549 33.1626 10.5874L26.8101 7.19245C25.0601 6.26495 22.9426 6.19495 21.1401 7.01745L9.97505 11.1474L3.43005 11.0599V9.30995L9.67755 9.39745L20.4751 5.40745C22.7151 4.39245 25.4101 4.46245 27.6326 5.65245L33.9851 9.04745C34.9826 9.57245 35.7876 10.3949 36.3126 11.3924L36.6626 12.0574C37.4851 13.6149 37.8176 15.3474 37.6251 17.0799L37.3451 19.6874C37.2751 20.3874 36.8901 21.0174 36.3301 21.4199C35.7526 21.8224 35.0351 21.9624 34.3526 21.8224L33.5476 21.6299C32.5851 21.4199 31.7626 20.8949 31.1501 20.1774C31.1501 20.4224 31.1501 20.6674 31.1326 20.9124C30.8701 23.1874 28.9451 24.9024 26.6526 24.9024H19.1101L18.2701 25.0774C17.5176 25.2349 16.7651 25.3049 16.0126 25.3049L16.0651 25.3399ZM24.3426 13.5974C23.6601 13.5974 23.0301 13.9999 22.7326 14.6299C22.6101 14.8924 22.6276 15.2074 22.7676 15.4699C22.9076 15.7324 23.1701 15.9074 23.4501 15.9424L27.8251 16.5724C28.7351 16.7124 29.5226 17.1324 30.1176 17.7449L29.5926 15.6974C29.4351 15.1199 28.9801 14.6649 28.4026 14.5249L24.7801 13.6499C24.6401 13.6149 24.5001 13.5974 24.3601 13.5974H24.3426Z" fill="black"/>
<path d="M39.3225 19.4601C38.4475 19.4601 37.3275 19.2151 36.19 18.2876L37.2925 16.9226C38.045 17.5351 38.85 17.7976 39.7075 17.6751C40.18 17.6051 40.6175 17.3251 40.915 16.8701C41.0375 16.6951 41.0725 16.4851 41.0375 16.2751C41.0025 16.0651 40.88 15.8901 40.705 15.7676L33.9325 11.2001L34.9125 9.74756L41.685 14.3151C42.245 14.7001 42.63 15.2776 42.77 15.9426C42.91 16.6076 42.77 17.2901 42.3675 17.8501C41.79 18.7076 40.8975 19.2676 39.9525 19.3901C39.76 19.4251 39.55 19.4426 39.305 19.4426L39.3225 19.4601Z" fill="black"/>
<path d="M3.5 29.715V27.965C6.615 27.965 7.525 24.92 7.525 24.9025L7.595 24.7275C11.025 18.375 15.1375 14.6475 19.8275 13.65C25.4625 12.4425 29.7675 15.68 29.96 15.82L28.8925 17.2025C28.8925 17.2025 25.0075 14.2975 20.1775 15.3475C16.0475 16.24 12.355 19.635 9.1875 25.4625C8.715 26.985 6.965 29.6975 3.5 29.6975V29.715Z" fill="black"/>
<path d="M29.5925 18.1649C30.2787 18.1649 30.835 17.6086 30.835 16.9224C30.835 16.2362 30.2787 15.6799 29.5925 15.6799C28.9063 15.6799 28.35 16.2362 28.35 16.9224C28.35 17.6086 28.9063 18.1649 29.5925 18.1649Z" fill="black"/>
<path d="M46.6725 17.01C46.655 16.7825 45.9725 11.2525 39.1825 9.34504L39.655 7.66504C47.6175 9.90504 48.3875 16.555 48.4225 16.835L46.69 17.01H46.6725Z" fill="black"/>
</svg>
