<svg width="72" height="72" viewBox="0 0 72 72" fill="none" xmlns="http://www.w3.org/2000/svg">
    <path d="M52.5 39C45.03 39 39 45.03 39 52.5C39 59.97 45.03 66 52.5 66C59.97 66 66 59.97 66 52.5C66 45.03 59.97 39 52.5 39ZM50.43 59.91L43.5 52.74L46.98 49.38L50.43 52.95L58.02 45.09L61.5 48.45L50.43 59.94V59.91Z"
          fill="#999999"/>
    <path d="M6 9V51.15H33.06C33.21 49.05 33.66 47.01 34.44 45.15H12V21.21L36 39.54L60 21.21V34.5C62.25 35.43 64.26 36.78 66 38.46V9H6ZM36 32.01L13.74 15H58.26L36 32.01Z"
          fill="#999999"/>
</svg>
