<svg width="48" height="48" viewBox="0 0 48 48" fill="none" xmlns="http://www.w3.org/2000/svg">
<path d="M48 0H0V48H48V0Z" fill="white"/>
<path d="M41.0207 9.36451C40.5647 8.87971 39.8063 8.86051 39.3263 9.31171L34.5455 13.8093C31.9151 9.52771 27.1871 6.66211 21.8015 6.66211C13.5599 6.66211 6.85913 13.3677 6.85913 21.6045C6.85913 29.8413 13.5647 36.5469 21.8015 36.5469C25.1039 36.5469 28.1567 35.4669 30.6335 33.6477L37.6799 40.9677C37.9151 41.2125 38.2319 41.3373 38.5439 41.3373C38.8559 41.3373 39.1439 41.2269 39.3743 41.0013C39.8495 40.5405 39.8639 39.7821 39.4079 39.3021L32.4479 32.0733C35.1023 29.3757 36.7439 25.6749 36.7439 21.5997C36.7439 19.6365 36.3599 17.7597 35.6687 16.0413L40.9679 11.0589C41.4527 10.6029 41.4719 9.84451 41.0207 9.36451ZM34.3487 21.6045C34.3487 28.5213 28.7231 34.1469 21.8063 34.1469C14.8895 34.1469 9.26394 28.5213 9.26394 21.6045C9.26394 14.6877 14.8895 9.06211 21.8063 9.06211C26.5055 9.06211 30.6095 11.6589 32.7551 15.4941L23.1551 24.5229L16.5215 18.1053C16.0463 17.6445 15.2879 17.6589 14.8223 18.1341C14.3615 18.6093 14.3759 19.3677 14.8511 19.8333L22.3055 27.0477C22.5359 27.2733 22.8383 27.3837 23.1407 27.3837C23.4431 27.3837 23.7311 27.2733 23.9615 27.0573L33.7631 17.8365C34.1375 19.0269 34.3439 20.2941 34.3439 21.6045H34.3487Z" fill="#13784A"/>
</svg>
