<svg width="48" height="48" viewBox="0 0 48 48" fill="none" xmlns="http://www.w3.org/2000/svg">
<path d="M48 0H0V48H48V0Z" fill="white"/>
<path d="M38.4528 35.3816L35.0016 29.3384C36.9072 26.8568 37.9152 23.8808 37.9152 20.7272C37.9152 12.9752 31.6752 6.66797 24 6.66797C16.3248 6.66797 10.0848 12.9752 10.0848 20.7272C10.0848 23.8808 11.0928 26.8568 12.9984 29.3384L9.54723 35.3768C9.33603 35.6984 9.31683 36.092 9.49443 36.4328C9.67683 36.7784 10.0128 36.98 10.392 36.98C10.44 36.98 10.4832 36.98 10.5456 36.9704L15.168 36.2984L16.896 40.6616C17.0496 41.0696 17.424 41.3288 17.8608 41.3288C18.2304 41.3288 18.5568 41.1368 18.744 40.8152L22.2528 34.676C23.4144 34.82 24.5856 34.82 25.7424 34.676L29.2512 40.8152C29.4384 41.1368 29.7648 41.3288 30.1344 41.3288C30.5664 41.3288 30.9456 41.0648 31.0992 40.6664L32.832 36.3032L37.464 36.9752C37.9008 37.028 38.304 36.8168 38.5056 36.4376C38.6832 36.0968 38.664 35.708 38.4576 35.3864L38.4528 35.3816ZM33.5568 30.9464L35.6592 34.628L32.3232 34.1432C31.8528 34.0712 31.4016 34.3352 31.224 34.7816L29.9712 37.9352L27.8592 34.2344C29.9808 33.6152 31.9392 32.4872 33.5568 30.9416V30.9464ZM14.4432 30.9464C16.0608 32.4872 18.0192 33.62 20.1408 34.2392L18.024 37.94L16.7712 34.7816C16.6128 34.388 16.2384 34.1336 15.8208 34.1336C15.7728 34.1336 15.7248 34.1336 15.6768 34.1432L12.3408 34.628L14.4432 30.9464ZM24 8.81837C30.4944 8.81837 35.784 14.1608 35.784 20.7272C35.784 23.9096 34.56 26.9 32.3328 29.1512C30.1056 31.3976 27.1488 32.636 24.0048 32.636C20.8608 32.636 17.8992 31.3976 15.672 29.1464C13.4448 26.8952 12.2208 23.9048 12.2208 20.7224C12.2208 14.156 17.5056 8.81357 24.0048 8.81357L24 8.81837Z" fill="#13784A"/>
<path d="M19.3584 22.4781L18.4896 27.6045C18.3984 28.1469 18.9696 28.5597 19.4592 28.3005L24.0048 25.8861L28.5504 28.3005C29.04 28.5597 29.6112 28.1469 29.5201 27.5997L28.6512 22.4733L32.3377 18.8397C32.7265 18.4557 32.5104 17.7885 31.9681 17.7069L26.88 16.9581L24.6048 12.3021C24.36 11.8029 23.6545 11.8029 23.4096 12.3021L21.1344 16.9581L16.0464 17.7069C15.504 17.7885 15.2832 18.4509 15.6768 18.8397L19.3632 22.4733L19.3584 22.4781ZM24.0048 15.7293L25.5216 18.8397L28.9297 19.3389L26.4672 21.7677L27.048 25.1901L24.0097 23.5725L20.9664 25.1901L21.5472 21.7677L19.0848 19.3389L22.4928 18.8397L24.0097 15.7293H24.0048Z" fill="#13784A"/>
</svg>
