<svg width="25" height="24" viewBox="0 0 25 24" fill="none" xmlns="http://www.w3.org/2000/svg">
<g clip-path="url(#clip0_3625_16951)">
<path d="M12.48 5.71962C12.89 5.29962 13.25 4.88962 13.65 4.52962C14.67 3.62962 15.85 3.09962 17.23 3.00962C20.17 2.80962 22.68 4.84962 23.29 7.66962C23.71 9.61962 23.21 11.3696 22.18 13.0196C21.2 14.5996 19.92 15.9196 18.53 17.1396C17.13 18.3796 15.63 19.4896 14.06 20.4996C13.03 21.1596 11.98 21.1596 10.95 20.4996C8.71002 19.0396 6.59002 17.4296 4.75002 15.4696C3.70002 14.3596 2.79002 13.1396 2.16002 11.7396C1.02002 9.20962 1.60002 6.23962 3.64002 4.41962C4.59002 3.57962 5.71002 3.10962 6.98002 3.02962C9.18002 2.87962 10.89 3.81962 12.27 5.45962C12.34 5.54962 12.42 5.63962 12.49 5.72962L12.48 5.71962Z" fill="#F44336"/>
</g>
<defs>
<clipPath id="clip0_3625_16951">
<rect width="24" height="24" fill="white" transform="translate(0.5)"/>
</clipPath>
</defs>
</svg>
