<svg width="48" height="48" viewBox="0 0 48 48" fill="none" xmlns="http://www.w3.org/2000/svg">
<path d="M48 0H0V48H48V0Z" fill="white"/>
<path d="M41.3904 27.1062C41.424 25.599 40.584 24.3654 39.9696 23.6694C40.4256 22.0806 40.296 20.7414 39.5808 19.6806C38.3472 17.8374 35.928 17.7222 35.6544 17.7174C35.6112 17.7174 35.568 17.7174 35.5248 17.7174L30.0672 18.1686L30.7248 16.2486C32.1888 12.6774 32.376 10.0854 31.3008 8.3334C30.5808 7.1622 29.2128 6.5478 27.7344 6.7398C26.2704 6.927 25.1136 7.8486 24.7248 9.1446C24.2592 10.6854 23.328 12.399 22.6272 13.5702C22.1664 14.3382 21.528 15.0246 20.7216 15.6102C17.6832 17.823 16.5264 20.1126 16.0896 21.6438C15.9696 22.0614 15.6048 22.3542 15.2016 22.3542H8.03521C7.37281 22.3542 6.83521 22.8918 6.83521 23.5542V40.1334C6.83521 40.4598 6.96961 40.7718 7.20001 40.9974C7.42561 41.2134 7.72321 41.3334 8.03521 41.3334C8.04961 41.3334 8.064 41.3334 8.0784 41.3334L20.3424 40.9014L33.7968 40.239C33.7968 40.239 33.84 40.239 33.864 40.2342C35.8176 40.0278 37.2 39.3078 37.968 38.0982C38.5632 37.1622 38.6352 36.1638 38.5728 35.4294C39.6624 34.8054 40.3488 33.9798 40.6176 32.9574C40.9344 31.7622 40.5744 30.6294 40.1904 29.8662C41.1312 28.8486 41.3664 27.8358 41.3856 27.1062H41.3904ZM9.2352 24.7542H13.4208V38.7462L9.2352 38.895V24.7542ZM37.9248 28.695C37.6704 28.8918 37.5072 29.1798 37.4688 29.4966C37.4304 29.8134 37.5168 30.135 37.7136 30.3894C37.944 30.687 38.496 31.6134 38.2992 32.3478C38.1648 32.8518 37.6512 33.2838 36.7824 33.6294C36.1872 33.8694 35.8848 34.5318 36.096 35.1366C36.096 35.1462 36.3984 36.0966 35.9472 36.807C35.5056 37.4982 34.464 37.7526 33.648 37.839L20.2464 38.5014L15.8256 38.655V24.6822C17.0352 24.4422 18.0528 23.5302 18.4032 22.2966C18.7344 21.1302 19.656 19.3542 22.1376 17.5446C23.208 16.767 24.0624 15.8406 24.6912 14.799C25.4592 13.5126 26.4864 11.6118 27.024 9.8406C27.1632 9.3894 27.6432 9.1734 28.0464 9.1206C28.464 9.0678 28.9968 9.1638 29.2608 9.591C29.6208 10.1814 30.0048 11.7126 28.4976 15.375C28.488 15.399 28.4784 15.4182 28.4736 15.4422L27.5808 18.0582C27.3744 18.6582 27.4896 19.3206 27.8832 19.8294C28.3104 20.3814 28.992 20.6742 29.712 20.6118L35.6544 20.1222C36.096 20.151 37.1616 20.3574 37.6032 21.0246C38.0496 21.7014 37.7856 22.7814 37.488 23.5638C37.3056 24.039 37.4448 24.5814 37.8384 24.9078C37.848 24.9174 39.0288 25.959 39.0048 27.0486C38.9904 27.6054 38.6352 28.1574 37.9392 28.695H37.9248Z" fill="#13784A"/>
</svg>
