<svg width="48" height="48" viewBox="0 0 49 48" fill="none" xmlns="http://www.w3.org/2000/svg">
<g clip-path="url(#clip0_3932_1481)">
<path d="M48.5 0H0.5V48H48.5V0Z" fill="white"/>
<path fill-rule="evenodd" clip-rule="evenodd" d="M15.2361 14.6441C14.6988 14.6441 14.2665 15.0765 14.2665 15.6137V32.3849C14.2665 32.9222 14.6988 33.3545 15.2361 33.3545H33.7641C34.3013 33.3545 34.7337 32.9222 34.7337 32.3849V15.6137C34.7337 15.0765 34.3013 14.6441 33.7641 14.6441H15.2361ZM11.8665 15.6137C11.8665 13.751 13.3733 12.2441 15.2361 12.2441H33.7641C35.6268 12.2441 37.1337 13.751 37.1337 15.6137V32.3849C37.1337 34.2477 35.6268 35.7545 33.7641 35.7545H15.2361C13.3733 35.7545 11.8665 34.2477 11.8665 32.3849V15.6137Z" fill="#13784A"/>
<path fill-rule="evenodd" clip-rule="evenodd" d="M20.1609 13.4441C20.1609 12.7814 20.6981 12.2441 21.3609 12.2441H27.6345C28.2972 12.2441 28.8345 12.7814 28.8345 13.4441V21.7865C28.8345 22.4493 28.2972 22.9865 27.6345 22.9865H21.3609C20.6981 22.9865 20.1609 22.4493 20.1609 21.7865V13.4441ZM22.5609 14.6441V20.5865H26.4345V14.6441H22.5609Z" fill="#13784A"/>
<path fill-rule="evenodd" clip-rule="evenodd" d="M14.4056 9.95469C11.6844 9.95469 9.48081 12.1582 9.48081 14.8795V23.0443C9.48081 23.707 8.94355 24.2443 8.28081 24.2443C7.61807 24.2443 7.08081 23.707 7.08081 23.0443V14.8795C7.08081 10.8327 10.3589 7.55469 14.4056 7.55469H23.7944C24.4572 7.55469 24.9944 8.09195 24.9944 8.75469C24.9944 9.41743 24.4572 9.95469 23.7944 9.95469H14.4056Z" fill="#13784A"/>
<path fill-rule="evenodd" clip-rule="evenodd" d="M40.7431 23.7891C41.4059 23.7891 41.9431 24.3263 41.9431 24.9891V33.1539C41.9431 37.2006 38.6651 40.4787 34.6183 40.4787H25.2295C24.5668 40.4787 24.0295 39.9414 24.0295 39.2787C24.0295 38.6159 24.5668 38.0787 25.2295 38.0787H34.6183C37.3396 38.0787 39.5431 35.8751 39.5431 33.1539V24.9891C39.5431 24.3263 40.0804 23.7891 40.7431 23.7891Z" fill="#13784A"/>
<path d="M19.8249 39.6623L24.3513 41.4287C24.7737 41.5919 25.2249 41.2847 25.2249 40.8287V37.7279C25.2249 37.2767 24.7689 36.9647 24.3513 37.1279L19.8249 38.8943C19.4793 39.0383 19.4793 39.5279 19.8249 39.6623Z" fill="#13784A"/>
<path d="M29.1175 8.37517L24.5911 6.60877C24.1687 6.44557 23.7175 6.75277 23.7175 7.20877V10.3096C23.7175 10.7608 24.1735 11.0728 24.5911 10.9096L29.1175 9.14317C29.4631 8.99917 29.4631 8.50957 29.1175 8.37517Z" fill="#13784A"/>
</g>
<defs>
<clipPath id="clip0_3932_1481">
<rect width="48" height="48" fill="white" transform="translate(0.5)"/>
</clipPath>
</defs>
</svg>
