<svg width="48" height="48" viewBox="0 0 48 48" fill="none" xmlns="http://www.w3.org/2000/svg">
<path d="M48 0H0V48H48V0Z" fill="white"/>
<path d="M40.0512 21.183L34.9008 14.4582C33.5952 12.7542 31.512 11.7366 29.3328 11.7366H24.648L25.1904 8.0358C25.2432 7.6902 25.1376 7.3398 24.912 7.0758C24.6816 6.8118 24.3504 6.6582 24.0048 6.6582H7.82402C7.16162 6.6582 6.62402 7.1958 6.62402 7.8582C6.62402 8.5206 7.16162 9.0582 7.82402 9.0582H22.6176L20.04 26.5782L18.864 34.1478H7.82402C7.16162 34.1478 6.62402 34.6854 6.62402 35.3478C6.62402 36.0102 7.16162 36.5478 7.82402 36.5478H22.9344C23.5056 39.279 25.9296 41.3382 28.8288 41.3382C31.728 41.3382 34.152 39.279 34.7232 36.5478H37.3776C37.9056 36.5478 38.3712 36.2022 38.5248 35.6982L41.1408 27.1542C41.7648 25.1142 41.3568 22.8822 40.0512 21.1782V21.183ZM28.824 38.9382C26.8272 38.9382 25.2 37.311 25.2 35.3142C25.2 33.3174 26.8272 31.6902 28.824 31.6902C30.8208 31.6902 32.448 33.3174 32.448 35.3142C32.448 37.311 30.8208 38.9382 28.824 38.9382ZM38.8416 26.4582L36.4848 34.1526H34.7328C34.1904 31.3878 31.7472 29.295 28.824 29.295C25.9008 29.295 23.4576 31.3878 22.9152 34.1526H21.3456L22.4064 26.9382L24.3936 14.1414H29.328C30.768 14.1414 32.1408 14.8086 32.9904 15.9222L38.1408 22.647C38.976 23.7366 39.24 25.1622 38.8416 26.463V26.4582Z" fill="#13784A"/>
<path d="M7.81915 16.9625H15.8831C16.5455 16.9625 17.0831 16.4249 17.0831 15.7625C17.0831 15.1001 16.5455 14.5625 15.8831 14.5625H7.81915C7.15675 14.5625 6.61914 15.1001 6.61914 15.7625C6.61914 16.4249 7.15675 16.9625 7.81915 16.9625Z" fill="#13784A"/>
<path d="M7.81915 25.7379H12.5567C13.2191 25.7379 13.7567 25.2003 13.7567 24.5379C13.7567 23.8755 13.2191 23.3379 12.5567 23.3379H7.81915C7.15675 23.3379 6.61914 23.8755 6.61914 24.5379C6.61914 25.2003 7.15675 25.7379 7.81915 25.7379Z" fill="#13784A"/>
</svg>
