<svg width="48" height="48" viewBox="0 0 48 48" fill="none" xmlns="http://www.w3.org/2000/svg">
<path d="M48 0H0V48H48V0Z" fill="white"/>
<path d="M24 21.4902C21.1536 21.4902 18.8352 23.8086 18.8352 26.655C18.8352 29.0886 20.5296 31.1286 22.8 31.671V34.2438C22.8 34.9062 23.3376 35.4438 24 35.4438C24.6624 35.4438 25.2 34.9062 25.2 34.2438V31.671C27.4704 31.1286 29.1648 29.0886 29.1648 26.655C29.1648 23.8086 26.8464 21.4902 24 21.4902ZM24 29.4198C22.4736 29.4198 21.2352 28.1814 21.2352 26.655C21.2352 25.1286 22.4736 23.8902 24 23.8902C25.5264 23.8902 26.7648 25.1286 26.7648 26.655C26.7648 28.1814 25.5264 29.4198 24 29.4198Z" fill="#13784A"/>
<path d="M35.9088 15.1448H34.3008C33.36 10.3208 29.1024 6.66797 24.0048 6.66797C18.9072 6.66797 14.6496 10.3208 13.7088 15.1448H12.1008C9.11043 15.1448 6.68164 17.5784 6.68164 20.564V35.9096C6.68164 38.9 9.11523 41.3288 12.1008 41.3288H35.9136C38.904 41.3288 41.3328 38.8952 41.3328 35.9096V20.564C41.3328 17.5736 38.8992 15.1448 35.9136 15.1448H35.9088ZM24.0048 9.06797C27.768 9.06797 30.936 11.6552 31.8336 15.1448H16.176C17.0736 11.6552 20.2368 9.06797 24.0048 9.06797ZM38.9328 35.9096C38.9328 37.5752 37.5792 38.9288 35.9136 38.9288H12.1008C10.4352 38.9288 9.08164 37.5752 9.08164 35.9096V20.564C9.08164 18.8984 10.4352 17.5448 12.1008 17.5448H35.9136C37.5792 17.5448 38.9328 18.8984 38.9328 20.564V35.9096Z" fill="#13784A"/>
</svg>
