<svg width="16" height="16" viewBox="0 0 16 16" fill="none" xmlns="http://www.w3.org/2000/svg">
<g clip-path="url(#clip0_1521_4985)">
<path d="M0 4C0 1.79086 1.79086 0 4 0H12C14.2091 0 16 1.79086 16 4V12C16 14.2091 14.2091 16 12 16H4C1.79086 16 0 14.2091 0 12V4Z" fill="#4AC959"/>
<path d="M3.14732 12.6543L3.83328 10.1634C3.40919 9.43227 3.18672 8.60427 3.18904 7.75782C3.18904 5.10545 5.35814 2.94896 8.02085 2.94896C9.31397 2.94896 10.5283 3.44945 11.439 4.35818C12.3521 5.2669 12.855 6.47546 12.8527 7.76013C12.8527 10.4125 10.6836 12.569 8.01854 12.569H8.01622C7.20744 12.569 6.41256 12.366 5.70575 11.9832L3.14732 12.6543ZM5.82858 11.1136L5.97457 11.2013C6.59101 11.5657 7.29782 11.7571 8.01854 11.7594H8.02085C10.234 11.7594 12.0369 9.96736 12.0369 7.76243C12.0369 6.69457 11.6198 5.69128 10.862 4.93478C10.1042 4.17828 9.09382 3.76312 8.02085 3.76312C5.80772 3.76082 4.00477 5.5529 4.00477 7.75782C4.00477 8.51201 4.21565 9.24776 4.61888 9.88433L4.7139 10.0365L4.30835 11.5103L5.82858 11.1136Z" fill="white"/>
<path d="M3.3165 12.486L3.97929 10.0804C3.5691 9.37691 3.35358 8.57659 3.35358 7.76012C3.3559 5.20001 5.44853 3.11733 8.02086 3.11733C9.26995 3.11733 10.4402 3.60167 11.3209 4.47811C12.2015 5.35454 12.6858 6.52158 12.6858 7.76243C12.6858 10.3225 10.5909 12.4052 8.02086 12.4052H8.01854C7.23757 12.4052 6.47051 12.2092 5.78919 11.8402L3.3165 12.486Z" fill="url(#paint0_linear_1521_4985)"/>
<path d="M3.14732 12.6543L3.83328 10.1634C3.40919 9.43227 3.18672 8.60427 3.18904 7.75782C3.18904 5.10545 5.35814 2.94896 8.02085 2.94896C9.31397 2.94896 10.5283 3.44945 11.439 4.35818C12.3521 5.2669 12.855 6.47546 12.8527 7.76013C12.8527 10.4125 10.6836 12.569 8.01854 12.569H8.01622C7.20744 12.569 6.41256 12.366 5.70575 11.9832L3.14732 12.6543ZM5.82858 11.1136L5.97457 11.2013C6.59101 11.5657 7.29782 11.7571 8.01854 11.7594H8.02085C10.234 11.7594 12.0369 9.96736 12.0369 7.76243C12.0369 6.69457 11.6198 5.69128 10.862 4.93478C10.1042 4.17828 9.09382 3.76312 8.02085 3.76312C5.80772 3.76082 4.00477 5.5529 4.00477 7.75782C4.00477 8.51201 4.21565 9.24776 4.61888 9.88433L4.7139 10.0365L4.30835 11.5103L5.82858 11.1136Z" fill="url(#paint1_linear_1521_4985)"/>
<path fill-rule="evenodd" clip-rule="evenodd" d="M6.81344 5.74663C6.72306 5.54598 6.62805 5.54136 6.5423 5.53906C6.47278 5.53675 6.39167 5.53675 6.31056 5.53675C6.22945 5.53675 6.09968 5.56673 5.98844 5.68667C5.87721 5.8066 5.56667 6.09721 5.56667 6.68995C5.56667 7.28039 6.00003 7.85238 6.06028 7.93311C6.12053 8.01383 6.89687 9.26621 8.12278 9.74825C9.14245 10.1496 9.35102 10.0688 9.57117 10.0481C9.79133 10.0273 10.2849 9.75747 10.3869 9.47609C10.4866 9.19471 10.4866 8.95485 10.4564 8.9041C10.4263 8.85336 10.3452 8.82338 10.2247 8.76341C10.1042 8.70345 9.51092 8.41284 9.39968 8.37132C9.28844 8.33212 9.20734 8.31136 9.12854 8.43129C9.04743 8.55122 8.81569 8.82107 8.74617 8.9018C8.67665 8.98252 8.60481 8.99175 8.4843 8.93178C8.3638 8.87181 7.97447 8.74496 7.5133 8.33442C7.1541 8.01614 6.91077 7.62174 6.84125 7.50181C6.77173 7.38188 6.8343 7.3173 6.89455 7.25733C6.94785 7.20428 7.01506 7.11664 7.07531 7.04745C7.13556 6.97826 7.15642 6.92751 7.19582 6.84679C7.23521 6.76607 7.21667 6.69687 7.18655 6.63691C7.15642 6.57925 6.92004 5.98419 6.81344 5.74663Z" fill="white"/>
</g>
<defs>
<linearGradient id="paint0_linear_1521_4985" x1="7.99958" y1="15.9992" x2="7.99958" y2="-0.000559799" gradientUnits="userSpaceOnUse">
<stop stop-color="#20B038"/>
<stop offset="1" stop-color="#60D66A"/>
</linearGradient>
<linearGradient id="paint1_linear_1521_4985" x1="8.00156" y1="15.9985" x2="8.00156" y2="0" gradientUnits="userSpaceOnUse">
<stop stop-color="#F9F9F9"/>
<stop offset="1" stop-color="white"/>
</linearGradient>
<clipPath id="clip0_1521_4985">
<rect width="16" height="16" fill="white"/>
</clipPath>
</defs>
</svg>
